<svg xmlns="http://www.w3.org/2000/svg" xmlns:xlink="http://www.w3.org/1999/xlink" width="1094" height="679" viewBox="0 0 1094 679">
  <defs>
    <clipPath id="clip-path">
      <rect id="Rectangle_145" data-name="Rectangle 145" width="255" height="255" transform="translate(533 672)" fill="#f3dc8d"/>
    </clipPath>
  </defs>
  <g id="Group_518" data-name="Group 518" transform="translate(-173 -140)">
    <text id="ERROR" transform="translate(187 545)" fill="rgba(117,0,0,0.1)" font-size="350" font-family="SVN-ALoveOfThunder, SVN-A Love Of Thunder"><tspan x="0" y="0">ERROR</tspan></text>
    <text id="_4" data-name="4" transform="translate(173 729)" fill="#750000" font-size="430" font-family="SVN-ALoveOfThunder, SVN-A Love Of Thunder"><tspan x="0" y="0">4</tspan></text>
    <text id="_4-2" data-name="4" transform="translate(1020 729)" fill="#750000" font-size="430" font-family="SVN-ALoveOfThunder, SVN-A Love Of Thunder"><tspan x="0" y="0">4</tspan></text>
    <g id="Ellipse_1" data-name="Ellipse 1" transform="translate(545 395)" fill="#750000" stroke="#707070" stroke-width="1">
      <circle cx="175" cy="175" r="175" stroke="none"/>
      <circle cx="175" cy="175" r="174.5" fill="none"/>
    </g>
    <g id="Mask_Group_65" data-name="Mask Group 65" transform="translate(62 -230)" clip-path="url(#clip-path)">
      <path id="peanut" d="M232.7,25.588C210.148,4.829,183.586-3.127,153.375,5.368,123.1,13.923,103.482,34.143,96.063,64.833c-4.248,17.409-14,27.34-31.467,31.288C25.71,104.915-.852,141.767,2.259,181.251a81.615,81.615,0,0,0,75.378,75.5c39.663,3.051,76.4-23.391,85.249-62.157,4.008-17.708,14.118-27.4,31.707-31.707,30.271-7.358,50.312-26.861,58.927-56.653C262.254,75.9,254.477,49.039,232.7,25.588ZM48.683,140.391c10.888-10.11,23.451-17.229,37.988-20.52,17.648-4.008,28.237-14.717,32.3-32.245A81.951,81.951,0,0,1,122.8,75.482c7.358-18.127,13.819-23.571,15.614-24.767.778-.538,7.179-4.906,9.572-2.991,1.555,1.256,1.795,5.145.3,6.7-11.367,12.025-14.956,24.528-21.6,41.817-3.051,7.9-3.948,14.418-10.529,20.161a43.482,43.482,0,0,1-8.136,5.324c-5.145,2.931-9.033,5.623-17.17,7.418a75.178,75.178,0,0,0-35.6,18.725c-2.632,2.453-5.444,4.427-8.435,1.316C43.717,145.835,45.931,142.9,48.683,140.391Zm79.985,54.918c-12.563,20.1-30.271,33.2-53.423,38.527-6.341,1.436-12.862,1.914-19.862,2.931-21.9-8.854-32.066-28.716-35.954-39.005a35.646,35.646,0,0,0,2.154,4.606,48.081,48.081,0,0,0,.658-4.906c1.555-8.016,2.872-16.033,5.025-23.87.419-1.555,3.948-2.273,5.982-3.41a38.535,38.535,0,0,1,3.051,6.341c.3,1.017-.658,2.453-1.017,3.709a72.161,72.161,0,0,0-2.154,32.544,31.639,31.639,0,0,0,1.256,3.948l3.589-3.589,25.665-25.664c2.453-2.453,5.265-3.051,7.717-.479,2.273,2.393,1.735,5.085-.6,7.358l-5.2,5.2L41.025,224.085c2.872.538,4.666,1.077,6.521,1.256,31.288,2.812,55.4-9.153,72.447-35.476,2.034-3.111,4.188-6.042,8.2-3.649C132.257,188.788,130.582,192.258,128.667,195.309ZM235.812,55.859c-.239,1.914-.359,2.513-.419,3.171-2.273,40.8-27.16,70.951-66.644,80.7a39.622,39.622,0,0,0-24.707,17.289c-1.855,2.872-4.248,5.025-7.657,2.872-3.649-2.333-2.692-5.444-.658-8.5,7.777-11.546,18.486-18.605,32.006-21.716a74.606,74.606,0,0,0,56.773-61.439,63.035,63.035,0,0,0-1.256-26.382c-4.786,4.786-8.914,8.974-13.042,13.042-3.829,3.829-7.418,7.957-11.606,11.247-1.5,1.137-4.606.179-6.94.239,0-2.333-.419-4.846.239-7,.479-1.5,2.393-2.632,3.649-3.889l20.7-20.7c-2.991-.6-4.846-1.077-6.76-1.316a71.514,71.514,0,0,0-30.57,2.692c-2.991.9-5.743.479-6.88-2.812-1.137-3.41.538-5.683,3.889-6.7A64.082,64.082,0,0,1,184,24.571c5.683-.9,11.486-1.555,18.186-2.393-.778-.3-1.376-.6-1.974-.838,30.989,8.794,39.125,43.253,39.364,44.33A71.484,71.484,0,0,0,235.812,55.859Z" transform="translate(530.987 670.011)" fill="#f3dc8d"/>
    </g>
  </g>
</svg>
