<svg xmlns="http://www.w3.org/2000/svg" xmlns:xlink="http://www.w3.org/1999/xlink" width="1440" height="33" viewBox="0 0 1440 33">
  <defs>
    <clipPath id="clip-path">
      <rect id="Rectangle_151" data-name="Rectangle 151" width="1440" height="33" fill="#eaeaea"/>
    </clipPath>
  </defs>
  <g id="Mask_Group_67" data-name="Mask Group 67" clip-path="url(#clip-path)">
    <path id="hero-torn-bottom-yellow.1e3c7937" d="M0,14.656a30.135,30.135,0,0,1,3.5-1.22c1.32.652-.054-.03,3.158-.961l4.929-1.65c1.444.073,2.362.75,7.888.927,17.648.564,5.618,1.377,16.083,1.891l5.491,4.081c2.825-.267,5.494-.5,7.205-.671,9.649,2.692,1.279.07,14.886,2.277,4.8.778-2.777-.049,4.187.7,7.719.08.4-.121,4.107-.254a24.808,24.808,0,0,1,4.107.025c2.546.121,3.587.349,8.865.465,6.516.077,10.8-.13,15.705-.444l3.831-.278a26.7,26.7,0,0,1,6.466,2.464c8.938.056,12.315-1.019,19.168,1.2,6.237-1.529,5.11-1.286,16.055-1.529,10.519-.234,9.7-1.007,17.734.169,1.8.263,3.022,1.747,16.705-.125,6.1-.835,5.84-1.1,12.753-1.834,13.176,1.127,14.772,2.617,25.923,2.1l8.887-.43c.562-.014.993-.02,1.574-.031,3.095-.057,9.414.174,11.458-.326.187-.047.635-.166.867-.222s.625-.155.889-.213c5.342-1.183,10.951-1.464,18.111-1.881,18.038-1.052,8.408-1.426,25.11-.2l5.279-1.683c3.168,1.15,3.961,1.011,12.134,1.088,2.273-.8,2.736-1.294,6.383-1.6,11.7-.991-2.108.314,11.887.171l6.754-2.131c.216-.015.422-.032.613-.049a12.242,12.242,0,0,1,3.39.727l.108.265c4.777,1.071,2.869.433,3.6,2.272,11.5-.764.025-1.482,16.27-.518l4.256-2.172c6.939.625,1.746.251,8.557-.4,8.307,2.317,17.035,1.631,24.875-.268,3.126.705.486-.049,1.7.869.048.038.136.171.171.2l.19.385c9.983-.651.39-1.009,14.458-1.686l3.612,1.876c6.316-1.676,6.761-.883,18.134-1.268,1.876-.063,8.913-.148,9.379-.166,3.923-.155,3.2-.028,6.837-1.245l12.639.239c1.244-1.107-.01.279-1.638-1.521,7.418-.293,6.866-.68,12.481-1.423a40.164,40.164,0,0,1,4.936.609c3.857.493-1.609.068,4.1.525,6.266-2.814-2.736-.553,9.033-2.453,6.1.261,2.641.1,7.231,1.086,5.989-.6,4.879-.656,12.652-1.017,1.876-.745.559-.993,3.612-1.726,1.5.452,1.365.521,2.669.933l1.787.51c.149-.068.606.182.959.255l13.725-.521.889-.557c7.126-.482,18.251.525,30.4.273C569.783,11,568,9.928,576.154,11.24c.451-.023.939-.118,1.206-.147,10.557-1.133,7.358-.2,13.109-.187l5.059-.181c7.685.212,1.771.782,7.554,1,8.586.327,29.049-2.553,48.513-1.575a52.271,52.271,0,0,1,7.764.637l5.161,1.057c3.479-.22,8.71-.69,11.792-.777,10.808-.306,1.565-.076,8.983.437,12.1.837,9.624-.042,15.759,2.475,11.738-.207,14.937.139,19.775-.76,2.533,2.585,21.584,4.4,33.214,4.973,18.765.929,15.464,1.335,19.184,2.05,6.951,1.338,3.644.26,9.764.975,4.9.573,3.637.9,5.859,1.388.267-.076.517-.193.667-.247l.679-.251c.187-.068.5-.2.7-.268l2.507-.852c3.968,1.448,2.114-.022,13.449.506,6.237.291,6.545.992,10.236,1.789,9.9,2.138,17.156.027,24.529-1.171,5.018.7,4.272,1.2,10.871,1.107,15.689-.224-1.27-.306,9.008-1.27,14.017,1.375,7,.675,19.879-.55a30.091,30.091,0,0,1,4.269.71,27.81,27.81,0,0,0,5.294.72l4.894-2.236c4.726.554,3.523.583,7.586,1.61,6.685,1.691,8.862,1.171,27.043-.241,17.534-1.362,13.7-1.166,22.009-2.7,5.482-1.015,8.786-.716,15.648-.9,3.3-1.064,1.156-1.874,10.125-1.506,8.443.347,2.806.9,12.487.813a65.862,65.862,0,0,1,7.608-.018c4.453.183,3.723.29,3.771.293.292.017.781.067,1.06.077,5.393.2,3.3-.547,13.855-.42.327,3.1-1.517.679-2.876,1.27-.721.313-5.529-.6-.235.587,4.2.94,5.774.416,10.148.066l21.758-2.07c6.52.937-.327,0,5.425,1.508,19.524.063,21.161.986,40.327.25,11.931-.459,20.746,1.009,33.674-.895.146-.021.543-.038.787-.092,2.05,3.53.419,1.637,10.538,4.4,4.825-.263,1.3-.307,3.612-1.083,9.078.454,9.326-.055,16.274.757,9.468-.452,15.242-.817,23.409-1.581,13.941-1.3-.267.89,19.952-.991,7.529,1.021,1.019.807,10.782.677,4.98-.067,12.915-.168,17.394.19,5.028.4,4.517,1.088,10.725,1.565,6.161.473,10.335.157,16.524.377l.594,2.207c12.592.875,25.494-.239,37.949,1.483.1-.054.032-.15.048-.175l.454-.609c.939-.81-.86-.073,1.3-.752a131.637,131.637,0,0,1,14.289.826c2.606,2.426-1.517,3.473,9.2,3.959,9.116-.213-1.7-2.5,25.031-3.071l31.147.8c11.7.016,10.814-.761,23.688.151,32.827,2.327,5.621,2.017,35.128,2.327,8.862.093,7.9-.4,20.549,1.669,8.592,1.4,14.972.785,14.972,1.757V0H0Z" transform="translate(-13.968 -0.331)" fill="#eaeaea"/>
  </g>
</svg>
