<svg xmlns="http://www.w3.org/2000/svg" xmlns:xlink="http://www.w3.org/1999/xlink" width="445" height="340" viewBox="0 0 445 340">
  <defs>
    <clipPath id="clip-path">
      <rect id="Rectangle_60" data-name="Rectangle 60" width="445" height="45" fill="#750000"/>
    </clipPath>
    <clipPath id="clip-path-2">
      <rect id="Rectangle_62" data-name="Rectangle 62" width="445" height="45" transform="translate(0 0.427)" fill="#750000"/>
    </clipPath>
  </defs>
  <g id="Group_34" data-name="Group 34" transform="translate(-165 -275.763)">
    <g id="Mask_Group_18" data-name="Mask Group 18" transform="translate(165 275.763)" clip-path="url(#clip-path)">
      <path id="hero-torn-top-yellow.d114a465" d="M453.417,13.626c-2.83.147-6.125.063-9.612-3.167-4.209-3.9-1.993-.806-6.457-1.334-4.044-.577-3.441-2.674-7.363-.775-4.522,2.192-4.552,4.574-8.824,1.652l-2.276,1.93-2.292,1.6-1.1-2.827c-1.838-.077-2.524-2.078-4.586-2.947l-6.622-3.1c-2.168-1.312-3.76-3.393-5.8-2.463A7.393,7.393,0,0,0,395.8,4.274l-3.141,3.689c-4.32.294-7.814,3.858-10.346.484-7.09,4.711-1.586-.684-8.474,1.966-2.008-6.018-2.4-.243-11.3.291-2.16.13-.967-1.056-3.391-1.7-2.135-.565-.824.762-2.916,1.127-.625.109-3.2.034-4.159.09-1.871.111-.952-1.3-7.763-1.73-.047-2.412.242-1.683-1.314-1.111l-1,2.625c-2.779-3.016-6.338-1.972-8.849-1.467-3.985.8-1.295.234-4.277-1.018-7-2.933-6.863,7.2-11.007,1.189-4.108,2.864-8.83,1.445-14.055,1.948-.151-.3-.365-.356-.454-.908l-1.641-3.107c-3.381,1.9-19.546,2.387-26.069,5.256-5.954-6.5.466.23-4.735-2.282-2.91-1.406-.782-2.5-5.208,1.639-1.523-1.248-2.951-4.836-8.359-2.724-10.189,3.98-4.282,2.27-10.422-.923-10.64-5.532-14.672,4.344-14.86,4.525-5.4-4.622-5.847-8.1-10.29-7.664-1.752.17-4.182,2.039-5.984.862-1.714-1.123-4.038-7.518-11.233-4.56q-.3.124-.588.272c-.746,1.818-.962,1.918-2.083,2.25A2.265,2.265,0,0,1,199.9,4.972a1.773,1.773,0,0,1-1.255-.111c-.118.415.51.5-1.851.083a9.588,9.588,0,0,1-2-.745,3.275,3.275,0,0,1-.685.5c-1.642.95-2.12,1.05-2.777.835-.9.873-.933.753-2.444,1.222-3.772,1.173-7.656-.453-10.749-1.776l-.071.029c-4.076,1.564-9.607.161-12.978,4.433-5.709,7.237-3.441,2.539-10.446.766-1.919.36-3.614.752-4.894.215l-.223-.862a7.651,7.651,0,0,0-3.531.747c-2.229,1.217-2.331,3.307-4,5.038-6.016-3.756-4.84-.926-10.43-1.633-4.746-.6-.656.479-4.659,1.3-6.789,1.4-3.21-4.142-8.929-1.876-1.575.622-3.6.917-4.515,1.645-1.174.934-1.112,1.586-1.9,2.177-2.8,2.092-.2.421-1.956.078-4-.785.06-1.052-3.383,2.5-1.445-2.764-5.678-5.039-8.192-4.925-4.852.221-4.732-2.221-8.547-3.413-4.715-1.472-8.386.3-13.7,1.676-3.185.823-1.29,1.4-3.718-.412-5.89-4.4-5.01,5.409-18.84-2.974l-.385,3.014c-.611,3.013-2.673.2-5.539.112-3.35-.1-7.764,1.362-12.535-3.057-4.208-3.9-1.993-.805-6.456-1.334-4.045-.576-3.442-2.674-7.364-.774-4.522,2.191-4.552,4.574-8.824,1.651L9.835,11.039l-2.292,1.6L6.442,9.81C4.6,9.733,3.917,7.732,1.855,6.863L0,5.994V45H453.417Z" transform="translate(-4.208 0.237)" fill="#750000" fill-rule="evenodd"/>
    </g>
    <rect id="Rectangle_61" data-name="Rectangle 61" width="445" height="255" transform="translate(165 316.763)" fill="#750000"/>
    <g id="Mask_Group_17" data-name="Mask Group 17" transform="translate(165 570.336)" clip-path="url(#clip-path-2)">
      <path id="hero-torn-bottom-yellow.1e3c7937" d="M0,19.922a10.846,10.846,0,0,1,1.082-1.658c.408.887-.017-.04.975-1.306l1.522-2.242c.446.1.729,1.02,2.435,1.26,5.447.767,1.734,1.872,4.964,2.57l1.695,5.547c.872-.363,1.7-.682,2.224-.912,2.978,3.659.395.1,4.6,3.1,1.482,1.057-.857-.066,1.292.955,2.383.108.122-.165,1.268-.345.762-.118.343-.158,1.268.034a12.789,12.789,0,0,0,2.736.632,13.57,13.57,0,0,0,4.848-.6l1.183-.377a11.406,11.406,0,0,1,2,3.349c2.759.077,3.8-1.384,5.917,1.635,1.925-2.079,1.577-1.748,4.956-2.079,3.247-.318,2.994-1.369,5.474.23.555.357.933,2.374,5.156-.169,1.883-1.135,1.8-1.5,3.937-2.493,4.067,1.532,4.56,3.557,8,2.848l2.743-.584c.173-.019.307-.027.486-.042.955-.078,2.906.236,3.537-.443.058-.064.2-.226.267-.3s.193-.211.274-.29c1.649-1.609,3.38-1.991,5.59-2.557,5.568-1.43,2.6-1.939,7.751-.268L89.8,23.119c.978,1.563,1.223,1.374,3.746,1.479.7-1.09.845-1.759,1.97-2.178,3.611-1.347-.651.427,3.669.233l2.085-2.9c.067-.021.13-.043.189-.067a2.258,2.258,0,0,1,1.046.988l.033.36c1.475,1.456.886.589,1.111,3.088,3.549-1.039.008-2.014,5.022-.7l1.314-2.953c2.142.849.539.342,2.641-.541,2.564,3.15,5.258,2.216,7.678-.365.965.958.15-.066.526,1.181.015.052.042.233.053.276l.059.524c3.081-.885.121-1.371,4.463-2.291l1.115,2.551c1.95-2.279,2.087-1.2,5.6-1.723.579-.086,2.751-.2,2.9-.226,1.211-.211.987-.038,2.11-1.693l3.9.326c.384-1.505,0,.379-.506-2.068,2.29-.4,2.119-.925,3.852-1.934,1.759.71.029-.015,1.523.828,1.19.67-.5.093,1.265.713,1.934-3.825-.845-.752,2.788-3.335,1.883.354.815.138,2.232,1.476a11.817,11.817,0,0,1,3.905-1.383c.579-1.012.172-1.35,1.115-2.346.463.615.421.709.824,1.269l.552.693c.046-.093.187.248.3.347l4.236-.709.274-.757c2.2-.656,5.634.713,9.382.371,3.11,3.3,2.558,1.843,5.076,3.627a1.723,1.723,0,0,0,.372-.2c3.259-1.54,2.271-.274,4.046-.254l1.562-.246c2.372.288.547,1.063,2.332,1.361,2.65.444,8.967-3.471,14.974-2.141,1.481.328,1.489.234,2.4.866l1.593,1.437a34.268,34.268,0,0,1,3.64-1.056c3.336-.416.483-.1,2.773.594,3.736,1.137,2.971-.056,4.864,3.364,3.623-.281,4.611.19,6.1-1.033.782,3.514,6.662,5.975,10.252,6.76,5.792,1.263,4.773,1.814,5.922,2.787,2.146,1.818,1.125.353,3.014,1.325,1.513.778,1.123,1.219,1.809,1.886a3.454,3.454,0,0,0,.206-.335l.21-.342c.058-.093.155-.269.216-.364l.774-1.159c1.225,1.969.653-.03,4.151.687,1.925.4,2.02,1.348,3.16,2.432,3.055,2.907,5.3.037,7.571-1.592,1.549.956,1.319,1.634,3.356,1.505,4.843-.3-.392-.416,2.781-1.726,4.327,1.869,2.159.918,6.136-.748,1.071.476.509.4,1.318.965.86.6.269.52,1.634.979l1.511-3.039c1.459.753,1.087.792,2.342,2.189,2.063,2.3,2.735,1.591,8.347-.327,5.412-1.852,4.228-1.585,6.794-3.675,1.692-1.38,2.712-.974,4.83-1.218,1.019-1.446.357-2.547,3.125-2.047,2.606.471.866,1.223,3.854,1.1,1.325-.052.521-.356,2.348-.025,1.375.249,1.149.394,1.164.4.09.023.241.091.327.105,1.665.274,1.02-.744,4.277-.571.1,4.219-.468.923-.888,1.726-.222.425-1.707-.816-.073.8,1.3,1.277,1.782.565,3.132.089l6.716-2.814c2.012,1.273-.1,0,1.674,2.05,6.026.086,6.532,1.34,12.448.34,3.683-.624,6.4,1.372,10.394-1.216a.946.946,0,0,0,.243-.125c.633,4.8.129,2.225,3.253,5.978,1.489-.357.4-.417,1.115-1.473,2.8.618,2.879-.075,5.023,1.029a36.426,36.426,0,0,0,7.226-2.149c4.3-1.771-.082,1.21,6.159-1.347,2.324,1.388.315,1.1,3.328.92a16.566,16.566,0,0,1,5.369.259c1.552.546,1.394,1.478,3.311,2.127s3.19.214,5.1.512l.183,3c3.887,1.189,7.869-.325,11.714,2.016a.849.849,0,0,0,.015-.237l.14-.827c.29-1.1-.266-.1.4-1.023a10.265,10.265,0,0,1,4.411,1.123c.8,3.3-.468,4.72,2.841,5.381,2.814-.289-.525-3.4,7.726-4.174l9.614,1.082c3.612.022,3.338-1.035,7.312.206,10.133,3.163,1.735,2.741,10.843,3.162,2.735.126,2.44-.542,6.343,2.268,2.652,1.908,4.621,1.067,4.621,2.388V0H0Z" transform="translate(-4.311 -0.059)" fill="#750000"/>
    </g>
  </g>
</svg>
