<svg xmlns="http://www.w3.org/2000/svg" xmlns:xlink="http://www.w3.org/1999/xlink" width="1458" height="368" viewBox="0 0 1458 368">
  <defs>
    <filter id="hero-torn-yellow.1e3c7937" x="0" y="0" width="1458" height="368" filterUnits="userSpaceOnUse">
      <feOffset dy="3" input="SourceAlpha"/>
      <feGaussianBlur stdDeviation="3" result="blur"/>
      <feFlood flood-opacity="0.502"/>
      <feComposite operator="in" in2="blur"/>
      <feComposite in="SourceGraphic"/>
    </filter>
  </defs>
  <g id="Group_61" data-name="Group 61" transform="translate(33.528 -1162)">
    <g transform="matrix(1, 0, 0, 1, -33.53, 1162)" filter="url(#hero-torn-yellow.1e3c7937)">
      <path id="hero-torn-yellow.1e3c7937-2" data-name="hero-torn-yellow.1e3c7937" d="M1424.39,52.979c-8.514.26-3.87-2.083-13.159-3.385-8.256-1.042-3.1,1.562-11.353,2.343-2.322.26-9.547,15.363-13.159,15.623-7.225.26-6.709-17.966-33.026-18.748-.258-4.687,5.934-9.634,0-8.332l-9.031,11.457c-10.837-5.989-24.512-3.906-34.316-2.864-15.481,1.562-4.9.521-16.513-2.083-27.092-5.728-30.962,3.645-46.959-8.332-16,5.728-30.188,13.54-50.314,14.581-.516-.521-1.29-.781-1.806-1.823L1165.34,36.055c-13.159,3.645-52.894,13.54-78.179,19.008-23.222-12.759,1.806.521-18.319-4.427-11.353-2.864-3.1-4.947-20.125,3.125-5.934-2.343-11.353-9.374-32.51-5.468C976.728,56.1,999.692,52.719,975.7,46.47c-41.283-10.936-57.022,8.593-57.8,8.853-20.9-9.113-22.706-15.883-39.993-15.1-6.708.26-16.255,3.906-23.222,1.823C847.977,39.7,838.946,27.2,811.08,33.19c-.774.26-1.548.26-2.322.521-2.838,3.645-3.87,3.645-8,4.427-1.29,1.562-2.322,2.864-7.741,3.385a10.445,10.445,0,0,1-4.9-.26c-.516.781,2.064,1.042-7.224.26a40.811,40.811,0,0,1-7.741-1.562A10.726,10.726,0,0,1,770.571,41c-6.45,1.823-8.257,2.083-10.837,1.562-3.354,1.823-3.612,1.562-9.547,2.343-14.707,2.343-29.672-.781-41.8-3.385L720,55.063c-15.739,3.125-49.023-13.28-62.182-4.947-22.19,14.321-13.417,4.947-40.509,1.562-7.482.781-13.933,1.562-19.093.521l-.774-1.823a59.543,59.543,0,0,0-13.675,1.562c-8.773,2.343-9.031,6.51-15.481,9.895-23.222-7.291-9.547-15.623-31.22-16.925-18.319-1.3-11.611,14.581-27.35,16.4-26.318,2.864-8-15.363-30.446-10.936-6.192,1.3-18.319,9.113-21.932,10.415-4.644,1.823-3.354,9.113-6.45,10.155-10.837,4.166-1.806-5.208-8.515-5.728-10.837-1.042-12.643,2.864-17.287,7.551H411.41c-3.612-5.989-7.224-12.5-14.191-12.238-18.835.521-10.579-20.049-25.286-22.393-18.319-2.864-40.251,16.144-60.892,19.008-12.385,1.562-18.577,17.446-27.866,14.061-7.741-28.642-5.934-4.166-59.6-20.57v20.57C221.25,77.2,211.7,56.885,200.609,56.625c-12.9-.26-30.188,2.6-48.765-5.989-16.255-7.551-8,21.612-25.286,20.57C110.819,70.165,113.4,42.825,98.176,46.47,80.63,50.9,96.37,66.78,79.6,60.791L55.087,53.5V72.769h-3.1L41.928,50.9c-7.225-.26-9.8-4.166-17.8-5.728L16.9,43.345V353.461a36.487,36.487,0,0,0,5.418.781c17.545.781,5.676,1.823,16,2.6l5.418,5.468c2.838-.26,5.418-.781,7.225-.781,9.547,3.645,1.29,0,14.965,3.125,2.838.781,1.29.521,1.032.521.258,0,1.032.26,3.1.521,7.741,0,.516-.26,4.128-.26h4.128a59.464,59.464,0,0,0,8.773.521c5.16,0,10.579,0,15.739-.521l3.87-.521a21.942,21.942,0,0,1,6.45,3.385c9.031,0,12.385-1.3,19.093,1.562,6.192-2.083,5.16-1.823,16-2.083,10.579-.26,9.8-1.3,17.545.26,1.806.26,3.1,2.343,16.771-.26,6.192-1.042,8.773-8.853,15.739-9.895,13.159,1.562,11.869,10.936,22.964,10.155l8.773-.521c.516,0,4.128,7.291,4.644,7.291,3.1,0,6.192-7.03,8.257-7.811a2.583,2.583,0,0,0,.774-.26c.258,0,.516-.26.774-.26,5.418-1.562,12.643-8.593,19.867-9.113,18.061-1.3,6.708,4.426,23.48,6.249l5.16-2.343c.258.26.774,8.332,1.29,8.593,2.322,1.042,3.354-7.03,10.579-7.03,2.322-1.041,2.838-1.823,6.45-2.083,11.611-1.3-2.064.521,11.869.26l6.708-2.864c.258,0-.258,5.728,0,5.728,2.064.26,3.354-5.208,3.87-4.687v.26c4.9,1.562,2.838.521,3.612,3.125,11.611-1.042-.516,4.426,15.739,5.728l4.9-9.374c6.966.781,4.9,4.947,11.611,4.166,8.257,3.125,13.933-2.6,21.674-5.208,3.1,1.042.516,0,1.806,1.3l.258.26.258.521c10.063-.781.774-8.072,14.707-8.853l3.354,9.113c6.192-2.343,6.708-1.3,18.061-1.823,1.806,0,9.031-.26,9.289-.26,3.87-.26,6.192,2.864,9.8,1.3l9.8-2.6c1.29-1.562,0,.521-1.548-2.083,7.482-.521,6.708-1.042,12.385-2.083,5.676.781,5.418,3.125,10.321,3.906,3.87.781-4.128-3.125,7.741-5.728,6.192.26,2.58,0,7.225,1.562a69.439,69.439,0,0,1,12.643-1.3c1.806-1.041.516-1.3,3.612-2.343,1.548.521,1.29.781,2.58,1.3l2.58,4.687a35.282,35.282,0,0,0,13.675-4.427l.774-.781c7.224-.781,18.319.781,30.446.26,10.063,3.385,1.29-4.947,9.547-3.125.516,0,7.741,6.51,8,6.51,10.579-1.562,7.224-.26,13.159-.26l5.16-.26c7.741.26,10.063-3.645,15.739-3.385,8.515.521,20.641,1.3,40.251,2.6a41.709,41.709,0,0,1,7.741.781l5.16,1.562c3.354-.26,8.773-1.042,11.869-1.042,10.837-.521,1.548,0,9.031.521,12.127,1.042,9.547,0,15.739,3.385,11.611-.26,17.287-6.51,21.932-7.811,2.58,3.645,15.223,18.748,26.834,19.529,18.835,1.3,19.609-4.166,23.222-3.125,6.966,1.823,3.1-9.634,9.289-8.593,4.9.781,4.128,11.2,6.451,11.717.258,0,.516-.26.774-.26l.774-.26c.258,0,.516-.26.774-.26l2.58-1.3c3.87,2.083,3.1-1.823,14.449-1.042,6.192.521,12.385-1.042,16,0,9.8,2.864,10.321,4.166,17.8,2.6,4.9,1.041,4.128,1.562,10.837,1.562,15.739-.26-.516-2.864,9.8-4.166,13.933,1.823,6.192,3.385,19.093,1.562,3.354.521,1.548.521,4.386,1.042s.774.521,5.16,1.041l6.451-8.072c4.644.781,2.064,5.989,5.934,7.291,6.708,2.343,8.773,1.562,27.092-.26,17.545-1.823,15.481,6.249,23.738,4.166,5.418-1.3,6.967-8.853,13.933-9.113,3.354-1.562,4.128-10.155,13.159-9.634,8.515.521-.258,8.853,9.547,8.593,4.386,0,1.548-.26,7.482,0,4.386.26,4.644-8.593,4.9-8.593s3.354,8.332,13.933,8.593c.258,4.166-1.548,1.042-2.838,1.823-.774.521-5.419-.781-.258.781,4.128,1.3,5.676.521,10.063,0l21.674-2.864c6.45,1.3,6.708-8.853,12.643-6.77,19.61,0,13.933,10.415,33.026,9.374,11.869-.521,18.061-2.864,30.962-5.468a31.082,31.082,0,0,0,13.933,10.155c4.9-.26,1.29-.521,3.612-1.562,9.031.521,9.289,0,16.255,1.042,9.547-.521,15.739-12.5,24-13.54,13.933-1.823-.774,12.5,19.351,9.895,7.483,1.3,1.032,1.042,10.837,1.042,4.9,0,12.9-.26,17.287.26,4.9.521,4.644,1.562,10.837,2.083,6.192.781,10.321.26,16.513.521l.516,3.125c12.643,1.3,25.544-.26,37.929,2.083v-.26l.516-.781c1.032-1.041-.774,0,1.29-1.041,6.193,0,15.739-8.072,19.609-7.551,2.58,3.385-6.967,13.28,3.87,14.061,9.031-.26-1.806-3.385,25.028-4.166l31.22-12.5c11.611,0,10.579,12.5,23.48,13.8,32.768,3.125,5.677,2.864,35.09,3.125,8.773,0,8-.521,20.641,2.343.258,0,.774.26,1.032.26V48.032C1449.934,49.595,1440.9,52.459,1424.39,52.979Z" transform="translate(-7.9 -25.58)" fill="#fff"/>
    </g>
  </g>
</svg>
