<svg id="brush" xmlns="http://www.w3.org/2000/svg" width="635" height="330.249" viewBox="0 0 635 330.249">
  <path id="brush-2" data-name="brush" d="M162.874,254.455c-2.757-1.865-5.293-4.208-8.316-5.458-3.069-1.268-6.6-1.461-10.273-2.2-1.084.689-2.5,1.58-3.878,2.453a11.269,11.269,0,0,1-2.077-.248c-5.293-1.636-10.595-3.234-15.832-5.017-4.576-1.553-8.895-3.28-12.331-7.13-2.343-2.628-6.1-4.061-9.961-6.5,3.914-.643,7.232-.744,10.181-1.81,2.123-.772,3.767-2.812,6.184-4.732-1.47-1.718-2.7-3.152-4.107-4.806.257-1.093.6-2.536,1.066-4.475-4.025-.193-7.728-.377-11.4-.561-.588,1.608-1.038,2.821-1.709,4.64a78.885,78.885,0,0,1-23.183-2.766c-1.985-.579-4.006-1.691-5.963-1.6-9.8.441-19.067-3.087-28.733-3.455a10.592,10.592,0,0,1-4.034-.79c-7.783-3.712-16.54-4.392-24.47-7.608a46.5,46.5,0,0,1-8.4-3.942,14.728,14.728,0,0,1-4.668-5.274c-2.187-4.172-.579-7.912,3.905-9.878a22.515,22.515,0,0,1,4.071-.965c.266-.937.478-1.911.818-2.849s.79-1.81,1.342-3.06c-2.656-1.387-5.228-2.738-8.123-4.254.772-1.2,1.093-2.4,1.8-2.683,2.187-.882,4.512-1.415,6.919-2.123.175-2.169.285-4.135.5-6.092s.533-3.933.809-5.862c-3.914-1.81-7.507-3.464-12.57-5.807,3.6-.652,5.642-1.029,8.242-1.5-.946-2.692-1.663-4.723-2.554-7.259,2.894-.193,5.228-.358,7.535-.515.239-.652.763-1.342.588-1.755-.919-2.187-2.1-4.172-.781-6.708,2.5-4.787,1.24-8.426-3.905-10.687-.551-.239-.836-1.048-1.24-1.58,1.838-11.183,1.838-11.183.055-16.806,1.213-.4,2.435-.8,3.657-1.2-4.071-6.781-3.74-12.175,2.582-17.459,3.372-2.812,6.8-4.7,5.256-9.676C23.095,69.935,21.689,64.9,21.487,60c-.055-1.3-.735-3.106-.1-3.832,3.492-4.015,1.792-8.83,2.5-13.811,3.2-2.049,6.616-4.236,10.2-6.533-.606-3.262.625-5.669,3.97-7.02,4.264-1.718,8.757-3.023,13.177-1.58,5.8,1.893,11.706,1.764,17.532,1.5,6.588-.3,13.131-.616,19.7.1,1.011.11,2.334.322,3.041-.165,5.192-3.584,10.641-1.7,16.071-.992a25.709,25.709,0,0,0,6.2.4c14.858-1.737,29.009,1.626,42.911,5.973a97.672,97.672,0,0,0,29.634,4.613c12.837-.018,25.7.083,38.519.772,13.811.735,27.585,2.233,41.377,3.345,4.126.331,8.261,1.038,12.239-1.075a5.449,5.449,0,0,1,3.979-.432c5.063,1.994,10.245,1.323,15.446,1.2a11.145,11.145,0,0,1,5.081.763c3.308,1.663,6.818,1.553,10.135,1.084a17.5,17.5,0,0,1,9.06,1.277,13.562,13.562,0,0,0,5.991,1.112A61.417,61.417,0,0,1,350.7,48.8a69.035,69.035,0,0,0,26.822,1.645c4.8-.625,9.547-.551,14.215,1.5,2.426,1.066,5.394,1.084,8.141,1.342,12.4,1.176,24.782,2.5,36.966,5.137,1.277.276,3.06.377,3.676,1.213,2.766,3.74,6.248,3.7,10.163,2.481,6.1-1.9,12.092-2.858,17.532,1.773.423.358,1.7.524,1.9.266,2.986-3.795,5.146-.046,7.728.57a21.263,21.263,0,0,0,7.2.239c6.5-.717,7.094-.487,15.345,1.562,4.668,1.158,9.593,1.277,14.4,1.92,2.343.312,4.668.772,8.1,1.36-5.127,3.418-10.089.1-14.684,2.426.413,1.856.882,3.924,1.507,6.689a61.9,61.9,0,0,0,7.7,1.3c9,.459,18.019.689,27.024,1.011,1.387.046,2.894-.239,4.144.184,8.435,2.812,17.156,1.718,25.784,1.976,3.382.1,6.791-.45,9.29,3.078.873,1.231,3.813,1,5.761,1.608,1.829.57,4.337-.193,5.421,2.931-7.2,2.775-14.84,2.022-22.218,2.463-7.957.478-15.961.083-23.946.248-7.562.156-15.106.561-22.577.845-.331,2.839,1.461,2.6,2.61,2.61,4.861.046,9.731.055,14.582-.165A279.593,279.593,0,0,1,584.8,98.568c4.126.432,8.307.294,12.46.423,1.672.046,3.409-.092,5.008,1.415-2.922,2.665-6.129,1.58-9.033,1.819-2.61.211-5.375-.836-8.628.79,3.666,3.574,8.858-.616,11.587,3.924-.028,1.884-2.086,1.489-3.6,1.672-3,.358-6.212-1.268-9.042.827-.9,3.069,1.838,3.547,3.473,3.942,3,.708,6.221.469,9.272,1.029,3.492.634,5.752,3.427,4.64,6.616-2.279,6.542,1.3,12.662.772,19.03a3.116,3.116,0,0,0,1.406,2.554c4.907,2.031,4.392,7.25,7.222,11.192-3.345,1.847-6.818,3.143-8.591,7.379-1.865,4.447-.276,7.838,1.02,12.065-2.306,1.534-4.484,2.986-6.349,4.236a94.533,94.533,0,0,1-.073,10.236c-.432,3.914-.055,7.3,2.95,10.291,3.62,3.611,2.224,7.379-.34,11.449a301.7,301.7,0,0,1-63.687,6.579c4.466,2.38,7.3,2.518,10.08,2.233,4.052-.413,7.277,1.332,10.833,2.793,3.17,1.3,3.207,4.052,5.063,6.671H577.36c1.259,1.59,2.509,3.188,3.749,4.751-.285.57-.4,1.3-.809,1.507-1.185.616-3.207.7-3.62,1.571-1.727,3.63-5.127,3.694-8.279,5.008-5.32,2.2-10.613,2.591-16.154,2.674-6.891.092-13.756.542-20.721,1.158.827,3.207,2.977,3.354,5.017,3.418,7.976.266,15.961.4,23.937.7,3.17.119,3.161.266,4.172,5.844-9.235,2.977-18.855,3.262-28.467,3.51-20.482.524-40.835-1.176-61.234-2.839-17.587-1.424-35.184-3.188-52.936-2.536-7.921.294-15.9-1.121-23.854-1.415a173.855,173.855,0,0,0-17.642.276c-9,.57-17.973,1.406-26.941,2.27-10.7,1.029-21.419,1.884-32.023,3.492-3.62.551-8.628-.322-10.392,4.732-4.438.266-8.876.643-13.324.717-1.277.018-2.554-.9-3.859-1.3-5.146-1.58-6.662-1.176-11.936,3.262-1.819-1.13-3.574-2.867-5.624-3.345-3.041-.708-2.977,3.326-5.219,4.2-4.686-4.879-11.89-1.415-17.413-5.173,2.132-3.473,8.068.193,9.244-4.833-.322-1.93-2.352-1.893-3.85-1.948-9.354-.34-18.717-.827-28.062-.662-17.3.312-34.55-.478-51.806-1.47-2.067-.119-4.144-.23-6.662-.377.781,1.571,1.4,2.821,2.123,4.273-4.254-.377-8.224-.717-12.184-1.066ZM95.429,40.614c-7.581-1.672-15.106-5.375-23.468-.432a46.48,46.48,0,0,0,11.265.478C87.278,40.43,91.358,40.614,95.429,40.614Zm428.728,59.754c.064.487.12.965.184,1.452,3.308-.156,6.625-.3,9.933-.45-.018-.331-.028-.662-.046-.992C530.874,100.369,527.511,100.369,524.157,100.369ZM452.375,238.65l-.276.91h5.247c0-.156.009-.312.009-.459C455.692,238.944,454.038,238.8,452.375,238.65ZM566.223,86.677c1.544,1.24,3.051,2.205,4.594.221a6.118,6.118,0,0,0-1.829-.652A16.8,16.8,0,0,0,566.223,86.677Zm-16.76,16.273c-.11-.239-.184-.671-.322-.7-.643-.1-1.3-.092-1.948-.129.138.4.266,1.167.4,1.167A9.491,9.491,0,0,0,549.463,102.951Zm22.411-.028c-.184-.184-.368-.533-.57-.542a14.437,14.437,0,0,0-1.884.138c.239.331.487.937.708.928A7.793,7.793,0,0,0,571.874,102.923ZM31.3,50.134c-.533-.1-1.048-.193-1.571-.294.221.221.423.57.68.616S31,50.253,31.3,50.134ZM431.369,239.1l.827.441.129-.652ZM203.194,258.268c-4.089-.037-8.187.156-12.267-.028-1.24-.055-2.417-1.369-3.565.23-.772,1.084.754,2.582,3.143,2.849,2.573.285,5.173.4,8.389.625-1.479,2.113-2.646,3.786-4.08,5.835,7.59,1.011,10.521-4.457,16.108-9.042C207.191,258.507,205.2,258.3,203.194,258.268ZM188.079,11.1c-5.725-.744-10.043-2.352-13.792-1.516-4.76,1.066-8.711-2.123-13.14-.956a5.338,5.338,0,0,0-1.507,1.038C164.73,13.572,167.569,13.746,188.079,11.1ZM82.96,10C79.211,3.234,72.227,3.124,66.475,0,65.7,1.663,65.2,2.747,64.058,5.219,71.1,6.469,75.691,11.578,82.96,10Zm152.625,252.13c.11,2.518-2.04,2.178-3.032,3.244-.285.3.028,1.13.083,1.911,2.95.827,5.844,1.158,8.858-.965q-.455-3.584-.937-7.278C237.726,258.378,235.447,258.948,235.585,262.127Zm-72.7-7.673c-5.137-1.066-10.282-2.141-17.734-3.694,6.726,4.953,12.313,6.12,18.819,7.866-.689-2.159-1.057-3.326-1.433-4.5C162.543,254.133,162.874,254.455,162.883,254.455ZM514.84,76.634h9.115C517.78,73.492,517.78,73.492,514.84,76.634ZM164.353,265.711c1.479-.3,2.371-1.029,2.021-2.821-3.418-1.02-6.827-1.029-12.515.726C158.721,264.81,161.211,266.354,164.353,265.711Zm56.088-6.91c-.4-.018-.827.818-1.24,1.268.542.276,1.139.855,1.617.772,1.58-.276,3.115-.79,5.127-1.332C223.768,259.2,222.114,258.874,220.442,258.8Zm-91.327-1.819c-1.029-3.97-1.011-4.006-5.4-3.336.91,2.738,3.207,3.06,5.651,3.143C129.363,256.789,129.133,256.972,129.115,256.982Zm19.471,4.833a12.941,12.941,0,0,0,1.976,2.031c.23.156,1.02-.459,1.553-.717-.469-.744-.937-1.479-1.378-2.169C149.771,261.346,149.183,261.585,148.586,261.815ZM25.392,35.432c-.248.018-.469.349-.7.533.349.331.781.983,1.038.928a27.9,27.9,0,0,0,3.74-1.479C27.257,35.4,26.32,35.367,25.392,35.432ZM43.558,214.759a6.066,6.066,0,0,0-1.819-.423c-.4.037-.772.57-1.158.882.8.45,1.6.9,2.453,1.378C43.255,215.844,43.411,215.3,43.558,214.759Zm92.861,43.527c-.368,1.718.91,2.251,2.141,2.343.671.055,1.461-.708,2.058-1.25.092-.083-.56-1.388-.873-1.388a21.8,21.8,0,0,0-3.5.478Zm-.184.193c-1.994-2.251-4.723-1.176-7.121-1.5.018-.009.248-.193.257-.2q3.528.744,7.039,1.507A1.66,1.66,0,0,1,136.236,258.479ZM542.874,71.047a3.276,3.276,0,0,0,0-.671c-.56-.046-1.13-.046-1.7-.055v.763C541.753,71.075,542.314,71.084,542.874,71.047Zm-10.484.5.45.579-.193-.818Zm.257-.239c-.524-.175-1.057-.349-1.58-.515.441.257.873.505,1.323.763C532.39,71.544,532.647,71.3,532.647,71.3ZM151.066,9.244c.5.34.983.937,1.5.956.5.018,1.02-.542,1.534-.855-.505-.34-1.011-.689-1.516-1.029C152.077,8.619,151.572,8.931,151.066,9.244Zm97.1,250.108c-.018.349-.046.7-.064,1.048a2.119,2.119,0,0,0,.754-.211c.11-.083.046-.4.055-.616Z" transform="matrix(0.995, -0.105, 0.105, 0.995, 0, 63.798)" fill="#f3dc8d"/>
</svg>
