<?xml version="1.0" encoding="utf-8"?>
<!-- Generator: Adobe Illustrator 24.1.2, SVG Export Plug-In . SVG Version: 6.00 Build 0)  -->
<svg version="1.1" id="Layer_1" xmlns="http://www.w3.org/2000/svg" xmlns:xlink="http://www.w3.org/1999/xlink" x="0px" y="0px"
	 viewBox="0 0 708.15 301.62" style="enable-background:new 0 0 708.15 301.62;" xml:space="preserve">
<style type="text/css">
	.st0{fill:#F3DC8D;}
</style>
<path class="st0" d="M199.27,281.4c-3-2.03-5.76-4.58-9.05-5.94c-3.34-1.38-7.18-1.59-11.18-2.39c-1.18,0.75-2.72,1.72-4.22,2.67
	c-0.79-0.09-1.57-0.05-2.26-0.27c-5.76-1.78-11.53-3.52-17.23-5.46c-4.98-1.69-9.68-3.57-13.42-7.76
	c-2.55-2.86-6.64-4.42-10.84-7.07c4.26-0.7,7.87-0.81,11.08-1.97c2.31-0.84,4.1-3.06,6.73-5.15c-1.6-1.87-2.94-3.43-4.47-5.23
	c0.28-1.19,0.65-2.76,1.16-4.87c-4.38-0.21-8.41-0.41-12.41-0.61c-0.64,1.75-1.13,3.07-1.86,5.05c-8.4,0.1-16.9-0.58-25.23-3.01
	c-2.16-0.63-4.36-1.84-6.49-1.74c-10.67,0.48-20.75-3.36-31.27-3.76c-1.48-0.06-3.09-0.24-4.39-0.86c-8.47-4.04-18-4.78-26.63-8.28
	c-3.13-1.27-6.38-2.45-9.14-4.29c-2.08-1.39-3.93-3.53-5.08-5.74c-2.38-4.54-0.63-8.61,4.25-10.75c1.35-0.59,2.91-0.71,4.43-1.05
	c0.29-1.02,0.52-2.08,0.89-3.1c0.36-1.01,0.86-1.97,1.46-3.33c-2.89-1.51-5.69-2.98-8.84-4.63c0.84-1.31,1.19-2.61,1.96-2.92
	c2.38-0.96,4.91-1.54,7.53-2.31c0.19-2.36,0.31-4.5,0.54-6.63c0.24-2.14,0.58-4.28,0.88-6.38c-4.26-1.97-8.17-3.77-13.68-6.32
	c3.92-0.71,6.14-1.12,8.97-1.63c-1.03-2.93-1.81-5.14-2.78-7.9c3.15-0.21,5.69-0.39,8.2-0.56c0.26-0.71,0.83-1.46,0.64-1.91
	c-1-2.38-2.29-4.54-0.85-7.3c2.72-5.21,1.35-9.17-4.25-11.63c-0.6-0.26-0.91-1.14-1.35-1.72c2-12.17,2-12.17,0.06-18.29
	c1.32-0.43,2.65-0.87,3.98-1.31c-4.43-7.38-4.07-13.25,2.81-19c3.67-3.06,7.4-5.11,5.72-10.53c3.51-4.93,1.98-10.41,1.76-15.74
	c-0.06-1.42-0.8-3.38-0.11-4.17c3.8-4.37,1.95-9.61,2.72-15.03c3.48-2.23,7.2-4.61,11.1-7.11c-0.66-3.55,0.68-6.17,4.32-7.64
	c4.64-1.87,9.53-3.29,14.34-1.72c6.31,2.06,12.74,1.92,19.08,1.63c7.17-0.33,14.29-0.67,21.44,0.11c1.1,0.12,2.54,0.35,3.31-0.18
	c5.65-3.9,11.58-1.85,17.49-1.08c2.23,0.29,4.55,0.69,6.75,0.43c16.17-1.89,31.57,1.77,46.7,6.5c10.56,3.3,21.17,5.04,32.25,5.02
	c13.97-0.02,27.97,0.09,41.92,0.84c15.03,0.8,30.02,2.43,45.03,3.64c4.49,0.36,8.99,1.13,13.32-1.17c1.2-0.64,3.12-0.94,4.33-0.47
	c5.51,2.17,11.15,1.44,16.81,1.31c1.85-0.04,3.95,0.03,5.53,0.83c3.6,1.81,7.42,1.69,11.03,1.18c3.6-0.5,6.64,0.16,9.86,1.39
	c2.04,0.78,4.41,1.44,6.52,1.21c8.38-0.92,16.47,0.17,24.54,2.29c9.58,2.52,19.31,3.09,29.19,1.79c5.22-0.68,10.39-0.6,15.47,1.63
	c2.64,1.16,5.87,1.18,8.86,1.46c13.5,1.28,26.97,2.72,40.23,5.59c1.39,0.3,3.33,0.41,4,1.32c3.01,4.07,6.8,4.03,11.06,2.7
	c6.64-2.07,13.16-3.11,19.08,1.93c0.46,0.39,1.85,0.57,2.07,0.29c3.25-4.13,5.6-0.05,8.41,0.62c2.49,0.6,5.25,0.55,7.84,0.26
	c7.07-0.78,7.72-0.53,16.7,1.7c5.08,1.26,10.44,1.39,15.67,2.09c2.55,0.34,5.08,0.84,8.82,1.48c-5.58,3.72-10.98,0.11-15.98,2.64
	c0.45,2.02,0.96,4.27,1.64,7.28c2.56,0.45,5.45,1.27,8.38,1.42c9.8,0.5,19.61,0.75,29.41,1.1c1.51,0.05,3.15-0.26,4.51,0.2
	c9.18,3.06,18.67,1.87,28.06,2.15c3.68,0.11,7.39-0.49,10.11,3.35c0.95,1.34,4.15,1.09,6.27,1.75c1.99,0.62,4.72-0.21,5.9,3.19
	c-7.84,3.02-16.15,2.2-24.18,2.68c-8.66,0.52-17.37,0.09-26.06,0.27c-8.23,0.17-16.44,0.61-24.57,0.92
	c-0.36,3.09,1.59,2.83,2.84,2.84c5.29,0.05,10.59,0.06,15.87-0.18c15.11-0.68,30.14,0.13,45.17,1.69c4.49,0.47,9.04,0.32,13.56,0.46
	c1.82,0.05,3.71-0.1,5.45,1.54c-3.18,2.9-6.67,1.72-9.83,1.98c-2.84,0.23-5.85-0.91-9.39,0.86c3.99,3.89,9.64-0.67,12.61,4.27
	c-0.03,2.05-2.27,1.62-3.92,1.82c-3.27,0.39-6.76-1.38-9.84,0.9c-0.98,3.34,2,3.86,3.78,4.29c3.26,0.77,6.77,0.51,10.09,1.12
	c3.8,0.69,6.26,3.73,5.05,7.2c-2.48,7.12,1.42,13.78,0.84,20.71c-0.08,0.91,0.73,2.45,1.53,2.78c5.34,2.21,4.78,7.89,7.86,12.18
	c-3.64,2.01-7.42,3.42-9.35,8.03c-2.03,4.84-0.3,8.53,1.11,13.13c-2.51,1.67-4.88,3.25-6.91,4.61c0,3.9,0.32,7.56-0.08,11.14
	c-0.47,4.26-0.06,7.94,3.21,11.2c3.94,3.93,2.42,8.03-0.37,12.46c-21.98,4.58-44.37,7.24-69.31,7.16c4.86,2.59,7.95,2.74,10.97,2.43
	c4.41-0.45,7.92,1.45,11.79,3.04c3.45,1.42,3.49,4.41,5.51,7.26c5.58,0,11.55,0,17.54,0c1.37,1.73,2.73,3.47,4.08,5.17
	c-0.31,0.62-0.44,1.41-0.88,1.64c-1.29,0.67-3.49,0.76-3.94,1.71c-1.88,3.95-5.58,4.02-9.01,5.45c-5.79,2.39-11.55,2.82-17.58,2.91
	c-7.5,0.1-14.97,0.59-22.55,1.26c0.9,3.49,3.24,3.65,5.46,3.72c8.68,0.29,17.37,0.43,26.05,0.76c3.45,0.13,3.44,0.29,4.54,6.36
	c-10.05,3.24-20.52,3.55-30.98,3.82c-22.29,0.57-44.44-1.28-66.64-3.09c-19.14-1.55-38.29-3.47-57.61-2.76
	c-8.62,0.32-17.3-1.22-25.96-1.54c-6.39-0.24-12.82-0.11-19.2,0.3c-9.79,0.62-19.56,1.53-29.32,2.47
	c-11.64,1.12-23.31,2.05-34.85,3.8c-3.94,0.6-9.39-0.35-11.31,5.15c-4.83,0.29-9.66,0.7-14.5,0.78c-1.39,0.02-2.78-0.98-4.2-1.41
	c-5.6-1.72-7.25-1.28-12.99,3.55c-1.98-1.23-3.89-3.12-6.12-3.64c-3.31-0.77-3.24,3.62-5.68,4.57c-5.1-5.31-12.94-1.54-18.95-5.63
	c2.32-3.78,8.78,0.21,10.06-5.26c-0.35-2.1-2.56-2.06-4.19-2.12c-10.18-0.37-20.37-0.9-30.54-0.72c-18.83,0.34-37.6-0.52-56.38-1.6
	c-2.25-0.13-4.51-0.25-7.25-0.41c0.85,1.71,1.52,3.07,2.31,4.65c-4.63-0.41-8.95-0.78-13.26-1.16L199.27,281.4z M125.87,48.68
	c-8.25-1.82-16.44-5.85-25.54-0.47c4.5,0.79,8.34,0.75,12.26,0.52C117,48.48,121.44,48.68,125.87,48.68z M592.45,113.71
	c0.07,0.53,0.13,1.05,0.2,1.58c3.6-0.17,7.21-0.33,10.81-0.49c-0.02-0.36-0.03-0.72-0.05-1.08
	C599.76,113.71,596.1,113.71,592.45,113.71z M514.33,264.2c-0.1,0.33-0.2,0.66-0.3,0.99c1.9,0,3.8,0,5.71,0
	c0-0.17,0.01-0.34,0.01-0.5C517.94,264.52,516.14,264.36,514.33,264.2z M638.23,98.81c1.68,1.35,3.32,2.4,5,0.24
	c-0.72-0.27-1.36-0.71-1.99-0.71C640.23,98.34,639.23,98.64,638.23,98.81z M619.99,116.52c-0.12-0.26-0.2-0.73-0.35-0.76
	c-0.7-0.11-1.41-0.1-2.12-0.14c0.15,0.44,0.29,1.27,0.44,1.27C618.64,116.89,619.31,116.66,619.99,116.52z M644.38,116.49
	c-0.2-0.2-0.4-0.58-0.62-0.59c-0.68-0.03-1.37,0.09-2.05,0.15c0.26,0.36,0.53,1.02,0.77,1.01
	C643.13,117.01,643.77,116.69,644.38,116.49z M56.08,59.04c-0.58-0.11-1.14-0.21-1.71-0.32c0.24,0.24,0.46,0.62,0.74,0.67
	C55.4,59.45,55.75,59.17,56.08,59.04z M491.47,264.69l0.9,0.48l0.14-0.71L491.47,264.69z M243.15,285.55
	c-4.45-0.04-8.91,0.17-13.35-0.03c-1.35-0.06-2.63-1.49-3.88,0.25c-0.84,1.18,0.82,2.81,3.42,3.1c2.8,0.31,5.63,0.43,9.13,0.68
	c-1.61,2.3-2.88,4.12-4.44,6.35c8.26,1.1,11.45-4.85,17.53-9.84C247.5,285.81,245.33,285.58,243.15,285.55z M226.7,16.56
	c-6.23-0.81-10.93-2.56-15.01-1.65c-5.18,1.16-9.48-2.31-14.3-1.04c-0.61,0.16-1.1,0.74-1.64,1.13
	C201.29,19.25,204.38,19.44,226.7,16.56z M112.3,15.36c-4.08-7.36-11.68-7.48-17.94-10.88c-0.84,1.81-1.39,2.99-2.63,5.68
	C99.39,11.52,104.39,17.08,112.3,15.36z M278.4,289.75c0.12,2.74-2.22,2.37-3.3,3.53c-0.31,0.33,0.03,1.23,0.09,2.08
	c3.21,0.9,6.36,1.26,9.64-1.05c-0.33-2.6-0.67-5.24-1.02-7.92C280.73,285.67,278.25,286.29,278.4,289.75z M199.28,281.4
	c-5.59-1.16-11.19-2.33-19.3-4.02c7.32,5.39,13.4,6.66,20.48,8.56c-0.75-2.35-1.15-3.62-1.56-4.9
	C198.91,281.05,199.27,281.4,199.28,281.4z M582.31,87.88c2.84,0,5.14,0,9.92,0C585.51,84.46,585.51,84.46,582.31,87.88z
	 M200.88,293.65c1.61-0.33,2.58-1.12,2.2-3.07c-3.72-1.11-7.43-1.12-13.62,0.79C194.75,292.67,197.46,294.35,200.88,293.65z
	 M261.92,286.13c-0.43-0.02-0.9,0.89-1.35,1.38c0.59,0.3,1.24,0.93,1.76,0.84c1.72-0.3,3.39-0.86,5.58-1.45
	C265.54,286.56,263.74,286.21,261.92,286.13z M162.53,284.15c-1.12-4.32-1.1-4.36-5.88-3.63c0.99,2.98,3.49,3.33,6.15,3.42
	C162.8,283.94,162.55,284.14,162.53,284.15z M183.72,289.41c0.7,0.76,1.32,1.64,2.15,2.21c0.25,0.17,1.11-0.5,1.69-0.78
	c-0.51-0.81-1.02-1.61-1.5-2.36C185.01,288.9,184.37,289.16,183.72,289.41z M49.65,43.04c-0.27,0.02-0.51,0.38-0.76,0.58
	c0.38,0.36,0.85,1.07,1.13,1.01c0.97-0.21,1.87-0.7,4.07-1.61C51.68,43.01,50.66,42.97,49.65,43.04z M69.42,238.2
	c-0.66-0.17-1.34-0.51-1.98-0.46c-0.44,0.04-0.84,0.62-1.26,0.96c0.87,0.49,1.74,0.98,2.67,1.5
	C69.09,239.38,69.26,238.79,69.42,238.2z M170.48,285.57c-0.4,1.87,0.99,2.45,2.33,2.55c0.73,0.06,1.59-0.77,2.24-1.36
	c0.1-0.09-0.61-1.51-0.95-1.51c-1.27-0.01-2.54,0.32-3.81,0.52L170.48,285.57z M170.28,285.78c-2.17-2.45-5.14-1.28-7.75-1.63
	c0.02-0.01,0.27-0.21,0.28-0.22c2.56,0.54,5.11,1.09,7.66,1.64C170.48,285.57,170.29,285.78,170.28,285.78z M612.82,81.8
	c0.02,0,0.03-0.73,0-0.73c-0.61-0.05-1.23-0.05-1.85-0.06c0,0.28,0,0.55,0,0.83C611.6,81.83,612.21,81.84,612.82,81.8z
	 M601.41,82.34l0.49,0.63l-0.21-0.89L601.41,82.34z M601.69,82.08c-0.57-0.19-1.15-0.38-1.72-0.56c0.48,0.28,0.95,0.55,1.44,0.83
	C601.41,82.34,601.69,82.08,601.69,82.08z M186.42,14.54c0.54,0.37,1.07,1.02,1.63,1.04c0.54,0.02,1.11-0.59,1.67-0.93
	c-0.55-0.37-1.1-0.75-1.65-1.12C187.52,13.86,186.97,14.2,186.42,14.54z M292.09,286.73c-0.02,0.38-0.05,0.76-0.07,1.14
	c0.28-0.07,0.61-0.07,0.82-0.23c0.12-0.09,0.05-0.44,0.06-0.67C292.63,286.89,292.36,286.81,292.09,286.73z"/>
</svg>
