<svg xmlns="http://www.w3.org/2000/svg" width="159.486" height="50.996" viewBox="0 0 159.486 50.996">
  <g id="brush" transform="translate(0 6.209)">
    <path id="brush-2" data-name="brush" d="M42.911,30.974a20.413,20.413,0,0,0-2.151-.722c-.787-.181-1.682-.242-2.618-.368l-.959.239c-.184-.018-.365-.021-.527-.052-1.353-.248-2.708-.492-4.049-.756a11.6,11.6,0,0,1-3.182-.96,19.369,19.369,0,0,0-2.576-.86c.984-.03,1.823,0,2.559-.094a8.159,8.159,0,0,0,1.523-.476c-.387-.214-.711-.393-1.081-.6.055-.123.129-.286.23-.5l-2.889-.193c-.135.179-.238.313-.392.515a44.009,44.009,0,0,1-5.888-.579,10.671,10.671,0,0,0-1.522-.251c-2.476-.059-4.85-.57-7.3-.72a5.8,5.8,0,0,1-1.027-.136c-2-.515-4.222-.692-6.256-1.151a22.1,22.1,0,0,1-2.159-.548A3.875,3.875,0,0,1,1.42,22.1c-.59-.505-.216-.918.9-1.094.309-.049.671-.045,1.021-.065a2.715,2.715,0,0,1,.182-.319,4.548,4.548,0,0,1,.313-.338L1.745,19.7c.185-.13.256-.264.432-.289.545-.077,1.129-.112,1.732-.167.025-.248.036-.473.072-.7s.1-.447.153-.666L.9,17.072l2.072-.08-.71-.865,1.9.025c.055-.072.181-.146.133-.2-.252-.262-.569-.5-.256-.782.59-.524.24-.957-1.082-1.275a1.077,1.077,0,0,1-.328-.2C3,12.436,3,12.436,2.5,11.768l.914-.1c-1.089-.827-1.053-1.445.5-1.983C4.744,9.4,5.594,9.223,5.16,8.632c.776-.486.376-1.082.282-1.648-.025-.151-.213-.366-.059-.443.848-.423.376-1,.511-1.563l2.523-.638c-.182-.383.108-.646.942-.764a10.084,10.084,0,0,1,3.319-.034,26.965,26.965,0,0,0,4.448.369c1.664.039,3.316.076,4.984.233a2.78,2.78,0,0,0,.768.015,11.162,11.162,0,0,1,4.056.066,14.406,14.406,0,0,0,1.572.115,56.914,56.914,0,0,1,10.907,1.17,54.154,54.154,0,0,0,7.536.864c3.247.142,6.5.3,9.75.521,3.5.24,7,.567,10.5.85a11.271,11.271,0,0,0,3.086.013,2.869,2.869,0,0,1,1-.005,21.277,21.277,0,0,0,3.918.312,6.147,6.147,0,0,1,1.292.145,9.207,9.207,0,0,0,2.573.239,9.637,9.637,0,0,1,2.3.249,7.428,7.428,0,0,0,1.525.2,34.256,34.256,0,0,1,5.722.5,38.5,38.5,0,0,0,6.8.49,14.355,14.355,0,0,1,3.609.332,14.853,14.853,0,0,0,2.071.246c3.148.275,6.29.566,9.4,1.007a3.489,3.489,0,0,1,.94.181,3.991,3.991,0,0,0,2.592.4,8.988,8.988,0,0,1,4.45.4,1.186,1.186,0,0,0,.483.052c.722-.4,1.3.052,1.96.152a11.863,11.863,0,0,0,1.824.108,17.193,17.193,0,0,1,3.9.352c1.191.186,2.438.255,3.659.383.6.062,1.187.141,2.062.248-1.267.336-2.551-.1-3.693.115.121.219.258.462.44.788.6.074,1.277.191,1.959.237,2.282.154,4.564.282,6.844.42a8.426,8.426,0,0,1,1.05.068,48.952,48.952,0,0,0,6.539.517,4.783,4.783,0,0,1,2.377.459,7.065,7.065,0,0,0,1.471.25c.468.086,1.1.026,1.4.4a38.564,38.564,0,0,1-5.6.034c-2.009-.034-4.036-.17-6.055-.24-1.911-.067-3.816-.1-5.7-.156-.059.323.392.316.683.33,1.23.06,2.462.116,3.687.145,3.506.084,7.006.324,10.512.645,1.047.1,2.1.127,3.155.188a3.411,3.411,0,0,1,1.279.219,6.2,6.2,0,0,1-2.269.108,10.1,10.1,0,0,0-2.176-.006c.959.453,2.235.028,2.965.582.01.217-.515.148-.9.152a8.616,8.616,0,0,0-2.28-.006c-.2.344.5.429.913.493.764.115,1.578.124,2.354.223.889.112,1.485.459,1.232.814-.519.728.441,1.474.362,2.2-.011.1.189.267.378.31,1.259.289,1.175.885,1.925,1.371a4.052,4.052,0,0,0-2.108.754c-.433.491,0,.9.364,1.4l-1.569.417a5.005,5.005,0,0,1,.071,1.179c-.075.446.05.84.836,1.219.947.457.627.875.014,1.315-5.072.258-10.254.309-16.052.044a8.57,8.57,0,0,0,2.569.37,11.652,11.652,0,0,1,2.765.443c.813.186.847.5,1.339.825l4.077.181c.332.2.663.4.99.589-.067.062-.091.145-.191.165-.294.058-.805.044-.9.14-.405.4-1.265.368-2.05.484a22.231,22.231,0,0,1-4.063.127c-1.742-.067-3.475-.092-5.231-.1.237.379.782.42,1.3.45,2.02.12,4.041.225,6.061.349.8.049.8.066,1.106.72a53.6,53.6,0,0,1-7.17.085c-5.176-.169-10.339-.594-15.514-1.014-4.461-.361-8.928-.762-13.412-.886-2-.055-4.031-.308-6.046-.431-1.487-.091-2.981-.144-4.46-.166-2.27-.035-4.534-.04-6.795-.041-2.7,0-5.4-.023-8.069.043-.911.023-2.185-.134-2.587.429-1.12-.019-2.24-.025-3.364-.067a7.5,7.5,0,0,1-.988-.193,4.469,4.469,0,0,0-2.991.242,9.087,9.087,0,0,0-1.452-.448c-.776-.116-.724.35-1.283.425-1.228-.615-3.02-.3-4.45-.791.509-.376,2.042.113,2.3-.453-.1-.226-.612-.244-.991-.268-2.369-.144-4.742-.305-7.1-.391-4.374-.158-8.743-.443-13.117-.751l-1.688-.118c.211.19.378.341.574.516l-3.091-.26ZM23.975,5.579c-1.932-.278-3.868-.789-5.94-.313a26.021,26.021,0,0,0,2.854.181C21.912,5.466,22.946,5.533,23.975,5.579ZM132.944,17.274c.021.057.039.113.059.169l2.509.06c-.008-.038-.013-.077-.02-.115ZM116,32.4l-.062.1,1.327.059c0-.018,0-.036,0-.053Zm27.464-16.233a1.3,1.3,0,0,0,1.164.077,3.133,3.133,0,0,0-.468-.1C143.925,16.139,143.7,16.161,143.464,16.168Zm-4.1,1.687c-.03-.029-.052-.079-.087-.084-.164-.019-.329-.025-.494-.037.038.048.078.137.113.139C139.057,17.881,139.211,17.863,139.368,17.855Zm5.669.248a.466.466,0,0,0-.149-.069c-.158-.01-.318,0-.475-.005.063.041.131.113.187.115A3.736,3.736,0,0,0,145.036,18.1ZM7.838,5.956l-.4-.052a.6.6,0,0,0,.177.079A.9.9,0,0,0,7.838,5.956ZM110.691,32.217l.213.06.027-.074Zm-57.548-.352c-1.035-.05-2.07-.074-3.1-.141-.314-.02-.623-.185-.9-.014-.186.116.213.306.82.363.653.062,1.312.1,2.128.166l-.981.627c1.929.2,2.622-.4,4-.861C54.156,31.938,53.65,31.892,53.143,31.866ZM47.152,3.218a26.252,26.252,0,0,0-3.5-.329c-1.195.069-2.222-.342-3.332-.258a1.718,1.718,0,0,0-.372.1C41.267,3.241,41.987,3.293,47.152,3.218Zm-26.6-1.306C19.545,1.09,17.778,1,16.3.575c-.181.183-.3.3-.565.574C17.521,1.372,18.728,2.012,20.553,1.911ZM61.37,32.674c.05.291-.5.228-.739.34-.069.032.017.131.038.221a4.96,4.96,0,0,0,2.232-.012q-.146-.418-.3-.849C61.879,32.266,61.307,32.306,61.37,32.674Zm-18.457-1.7-4.518-.625a23.892,23.892,0,0,0,4.829,1.117l-.4-.535Zm87.466-16.54,2.306.1C131.1,14.106,131.1,14.106,130.379,14.435Zm-87,17.853c.372-.018.591-.092.487-.3a10.82,10.82,0,0,0-3.159-.057A14.128,14.128,0,0,0,43.384,32.288Zm14.127-.167c-.1-.007-.2.085-.3.132a1.717,1.717,0,0,0,.416.107c.4-.014.781-.056,1.285-.1C58.355,32.2,57.934,32.148,57.51,32.121ZM34.394,30.887c-.3-.469-.291-.473-1.4-.445.254.326.838.389,1.457.425Zm4.967.775a3.765,3.765,0,0,0,.518.256,1.6,1.6,0,0,0,.387-.065l-.368-.265ZM6.214,4.2a.539.539,0,0,0-.172.054c.091.042.206.122.271.119.224-.012.429-.055.933-.128C6.686,4.214,6.448,4.2,6.214,4.2Zm6.168,20.866a3.292,3.292,0,0,0-.464-.069.917.917,0,0,0-.285.089l.633.186C12.315,25.183,12.35,25.123,12.382,25.062Zm23.871,6.057c-.078.194.25.27.562.294a1.262,1.262,0,0,0,.51-.121c.023-.008-.154-.166-.233-.17-.3-.014-.588.008-.881.016Zm-.045.02a4.958,4.958,0,0,0-1.814-.252l.063-.02,1.794.253A.337.337,0,0,1,36.208,31.139ZM137.421,14.106a.176.176,0,0,0-.006-.077c-.142-.012-.286-.018-.43-.025l.007.088C137.138,14.1,137.28,14.1,137.421,14.106Zm-2.648-.06.119.072-.056-.1Zm.063-.025-.4-.077.341.1S134.837,14.02,134.837,14.02ZM37.773,2.589a1.562,1.562,0,0,0,.387.127,1.382,1.382,0,0,0,.381-.081L38.149,2.5ZM64.527,32.5c0,.04-.005.08-.007.12a1.025,1.025,0,0,0,.189-.016c.027-.008.008-.046.009-.07Z" transform="matrix(0.995, -0.105, 0.105, 0.995, 0.354, 9.443)" fill="#f3dc8d"/>
  </g>
</svg>
