<svg xmlns="http://www.w3.org/2000/svg" xmlns:xlink="http://www.w3.org/1999/xlink" width="42" height="42" viewBox="0 0 42 42">
  <defs>
    <clipPath id="clip-path">
      <rect id="Rectangle_72" data-name="Rectangle 72" width="42" height="42" transform="translate(387.373 2021.373)" fill="#750000"/>
    </clipPath>
  </defs>
  <g id="Mask_Group_23" data-name="Mask Group 23" transform="translate(-387.373 -2021.373)" clip-path="url(#clip-path)">
    <path id="envelope" d="M36.51,4.125H5.216A5.216,5.216,0,0,0,0,9.341V30.2a5.216,5.216,0,0,0,5.216,5.216H36.51A5.216,5.216,0,0,0,41.726,30.2V9.341A5.216,5.216,0,0,0,36.51,4.125ZM5.216,8.037H36.51a1.305,1.305,0,0,1,1.3,1.3v1.806L24.224,22.473a5.384,5.384,0,0,1-6.721,0L3.912,11.147V9.341A1.305,1.305,0,0,1,5.216,8.037ZM36.51,31.507H5.216a1.305,1.305,0,0,1-1.3-1.3V16.24L15,25.481a9.163,9.163,0,0,0,11.728,0L37.814,16.24V30.2A1.305,1.305,0,0,1,36.51,31.507Z" transform="translate(387.01 2022.1)" fill="#750000"/>
  </g>
</svg>
