<svg version="1.0" id="Vrstva_1" xmlns="http://www.w3.org/2000/svg" xmlns:xlink="http://www.w3.org/1999/xlink" x="0px" y="0px" width="22px" height="48px" viewBox="0 0 22 48" enable-background="new 0 0 22 48" xml:space="preserve"><path fill="#BF0000" d="M12,15.1C12,15,12,15,12,15.1l0-1.1c0,0-0.5-2,1.8-2H17c0,0,0.1,0,0.1,0c1.3-0.1,3.7-1.2,3.9-3.9c0.2-2.9-2.5-3.9-3.9-4.1c0,0-0.1,0-0.1,0h-3.5C13.1,3.9,12,3.5,12,2V1c0-0.6-0.4-1-1-1s-1,0.4-1,1v1c0,2.6,1.6,4,3.2,4c0.1,0,0.1,0,0.2,0h3.6c0.4,0.1,2.2,0.4,2.1,1.9c-0.1,1.7-1.7,2-2.1,2.1h-2.8c-1.8,0-2.9,0.4-3.6,1.4C9.9,12,10,13.3,10,14.2V15c0,0,0,0,0,0.1C4.4,15.6,0,20.3,0,26v11c0,6.1,4.9,11,11,11s11-4.9,11-11V26C22,20.3,17.6,15.6,12,15.1z M20,37c0,5-4,9-9,9s-9-4-9-9V26c0-5,4-9,9-9s9,4,9,9V37z"></path><path id="scroll-wheel" fill="#BF0000" d="M11.9,25.3c0,0.5-0.4,1-1,1l0,0c-0.5,0-1-0.4-1-1V20c0-0.5,0.4-1,1-1l0,0c0.5,0,1,0.4,1,1V25.3z"></path></svg>