<svg xmlns="http://www.w3.org/2000/svg" xmlns:xlink="http://www.w3.org/1999/xlink" width="391" height="410" viewBox="0 0 391 410">
  <defs>
    <clipPath id="clip-path">
      <rect id="Rectangle_138" data-name="Rectangle 138" width="256" height="256" transform="translate(533 672)" fill="rgba(243,220,141,0.2)"/>
    </clipPath>
    <clipPath id="clip-path-2">
      <rect id="Rectangle_139" data-name="Rectangle 139" width="135" height="135" transform="translate(533 672)" fill="rgba(243,220,141,0.2)"/>
    </clipPath>
    <clipPath id="clip-path-3">
      <rect id="Rectangle_140" data-name="Rectangle 140" width="135" height="135" fill="rgba(243,220,141,0.2)"/>
    </clipPath>
  </defs>
  <g id="Group_518" data-name="Group 518" transform="translate(-202 -608)">
    <g id="Mask_Group_61" data-name="Mask Group 61" transform="translate(-331 -64)" clip-path="url(#clip-path)">
      <path id="peanut" d="M233.606,25.681C210.964,4.84,184.3-3.147,153.968,5.381c-30.39,8.588-50.089,28.888-57.536,59.7C92.168,82.556,82.378,92.526,64.841,96.49,25.8,105.319-.863,142.315,2.26,181.953a81.935,81.935,0,0,0,75.674,75.794c39.819,3.063,76.695-23.483,85.584-62.4,4.024-17.777,14.174-27.507,31.831-31.831,30.39-7.387,50.509-26.966,59.158-56.876C263.275,76.19,255.467,49.224,233.606,25.681ZM48.866,140.933c10.931-10.15,23.543-17.3,38.137-20.6,17.717-4.024,28.348-14.774,32.432-32.372a82.273,82.273,0,0,1,3.844-12.192c7.387-18.2,13.874-23.663,15.675-24.864.781-.541,7.207-4.925,9.609-3,1.562,1.261,1.8,5.165.3,6.727C137.452,66.7,133.849,79.253,127.182,96.61c-3.063,7.928-3.964,14.474-10.57,20.24a43.651,43.651,0,0,1-8.168,5.345c-5.165,2.943-9.069,5.646-17.237,7.447a75.473,75.473,0,0,0-35.735,18.8c-2.643,2.462-5.465,4.444-8.468,1.321C43.881,146.4,46.1,143.456,48.866,140.933Zm80.3,55.134c-12.612,20.18-30.39,33.333-53.632,38.678-6.366,1.441-12.913,1.922-19.939,2.943C33.611,228.8,23.4,208.86,19.5,198.53a35.784,35.784,0,0,0,2.162,4.625,48.268,48.268,0,0,0,.661-4.925c1.562-8.048,2.883-16.1,5.045-23.963.42-1.562,3.964-2.282,6.006-3.423a38.686,38.686,0,0,1,3.063,6.366c.3,1.021-.661,2.462-1.021,3.724A72.444,72.444,0,0,0,33.251,213.6a31.762,31.762,0,0,0,1.261,3.964l3.6-3.6L63.88,188.2c2.462-2.462,5.285-3.063,7.748-.48,2.282,2.4,1.742,5.1-.6,7.387L65.8,200.331,41.178,224.955c2.883.541,4.685,1.081,6.546,1.261,31.411,2.823,55.614-9.189,72.731-35.615,2.042-3.123,4.2-6.066,8.228-3.664C132.768,189.521,131.086,193,129.164,196.067Zm107.565-140c-.24,1.922-.36,2.522-.42,3.183-2.282,40.96-27.267,71.23-66.905,81.019a39.777,39.777,0,0,0-24.8,17.357c-1.862,2.883-4.264,5.045-7.687,2.883-3.664-2.342-2.7-5.465-.661-8.528,7.808-11.591,18.558-18.678,32.131-21.8a74.9,74.9,0,0,0,57-61.68,63.282,63.282,0,0,0-1.261-26.486c-4.8,4.8-8.949,9.009-13.093,13.093-3.844,3.844-7.447,7.988-11.651,11.291-1.5,1.141-4.625.18-6.967.24,0-2.342-.42-4.865.24-7.027.48-1.5,2.4-2.643,3.664-3.9l20.78-20.78c-3-.6-4.865-1.081-6.787-1.321a71.8,71.8,0,0,0-30.69,2.7c-3,.9-5.766.48-6.907-2.823-1.141-3.423.541-5.706,3.9-6.727a64.333,64.333,0,0,1,8.108-2.1c5.706-.9,11.531-1.562,18.258-2.4-.781-.3-1.381-.6-1.982-.841,31.11,8.829,39.278,43.422,39.519,44.5A71.765,71.765,0,0,0,236.729,56.071Z" transform="translate(530.987 670.011)" fill="rgba(243,220,141,0.2)"/>
    </g>
    <g id="Mask_Group_62" data-name="Mask Group 62" transform="translate(-75 76)" clip-path="url(#clip-path-2)">
      <path id="peanut-2" data-name="peanut" d="M124.142,14.494c-11.94-10.99-26-15.2-42-10.7C66.119,8.318,55.731,19.023,51.8,35.27c-2.249,9.216-7.411,14.474-16.659,16.564a43.171,43.171,0,0,0,6.9,85.038c21,1.615,40.445-12.384,45.132-32.907C89.3,94.591,94.656,89.46,103.967,87.18c16.026-3.9,26.636-14.221,31.2-29.993C139.788,41.13,135.67,26.909,124.142,14.494ZM26.72,75.271A43.3,43.3,0,0,1,46.832,64.408c9.343-2.122,14.949-7.791,17.1-17.071a43.386,43.386,0,0,1,2.027-6.429c3.9-9.6,7.316-12.479,8.266-13.112.412-.285,3.8-2.6,5.067-1.584a2.9,2.9,0,0,1,.158,3.547C73.436,36.125,71.535,42.745,68.02,51.9c-1.615,4.181-2.09,7.633-5.574,10.673a23.019,23.019,0,0,1-4.307,2.819c-2.724,1.552-4.782,2.977-9.09,3.927A39.8,39.8,0,0,0,30.2,79.23c-1.394,1.3-2.882,2.344-4.466.7C24.091,78.154,25.263,76.6,26.72,75.271Zm42.345,29.074c-6.651,10.642-16.026,17.578-28.283,20.4-3.357.76-6.809,1.013-10.515,1.552-11.592-4.687-16.976-15.2-19.035-20.65a18.87,18.87,0,0,0,1.14,2.439,25.453,25.453,0,0,0,.348-2.6c.823-4.244,1.52-8.488,2.66-12.637.222-.823,2.09-1.2,3.167-1.805A20.4,20.4,0,0,1,20.164,94.4c.158.538-.348,1.3-.538,1.964a38.2,38.2,0,0,0-1.14,17.229,16.749,16.749,0,0,0,.665,2.09l1.9-1.9L34.638,100.2c1.3-1.3,2.787-1.615,4.086-.253,1.2,1.267.918,2.692-.317,3.9l-2.755,2.755L22.666,119.58c1.52.285,2.47.57,3.452.665,16.564,1.489,29.328-4.846,38.354-18.781,1.077-1.647,2.217-3.2,4.339-1.932C70.965,100.894,70.078,102.731,69.065,104.346ZM125.789,30.52c-.127,1.013-.19,1.33-.222,1.679-1.2,21.6-14.379,37.562-35.282,42.725A20.976,20.976,0,0,0,77.2,84.076c-.982,1.52-2.249,2.66-4.054,1.52-1.932-1.235-1.425-2.882-.348-4.5A26.883,26.883,0,0,1,89.746,69.6,39.5,39.5,0,0,0,119.8,37.076a33.371,33.371,0,0,0-.665-13.967c-2.534,2.534-4.719,4.751-6.9,6.9a72.482,72.482,0,0,1-6.144,5.954c-.792.6-2.439.1-3.674.127a13.1,13.1,0,0,1,.127-3.706c.253-.792,1.267-1.394,1.932-2.059l10.958-10.958c-1.584-.317-2.565-.57-3.579-.7A37.861,37.861,0,0,0,95.669,20.1c-1.584.475-3.04.253-3.642-1.489-.6-1.805.285-3.009,2.059-3.547a33.925,33.925,0,0,1,4.276-1.109c3.009-.475,6.081-.823,9.628-1.267-.412-.158-.728-.317-1.045-.443,16.406,4.656,20.713,22.9,20.84,23.469A37.843,37.843,0,0,0,125.789,30.52Z" transform="translate(530.987 670)" fill="rgba(243,220,141,0.2)"/>
    </g>
    <g id="Mask_Group_63" data-name="Mask Group 63" transform="translate(355 883)" clip-path="url(#clip-path-3)">
      <path id="peanut-3" data-name="peanut" d="M14.894,14.494c11.94-10.99,26-15.2,42-10.7C72.916,8.318,83.3,19.023,87.232,35.27c2.249,9.216,7.411,14.474,16.659,16.564a43.171,43.171,0,0,1-6.9,85.038c-21,1.615-40.445-12.384-45.132-32.907C49.732,94.591,44.38,89.46,35.069,87.18c-16.026-3.9-26.636-14.221-31.2-29.993C-.752,41.13,3.365,26.909,14.894,14.494Zm97.422,60.778A43.3,43.3,0,0,0,92.2,64.408c-9.343-2.122-14.949-7.791-17.1-17.071a43.386,43.386,0,0,0-2.027-6.429c-3.9-9.6-7.316-12.479-8.266-13.112-.412-.285-3.8-2.6-5.067-1.584a2.9,2.9,0,0,0-.158,3.547C65.6,36.125,67.5,42.745,71.016,51.9c1.615,4.181,2.09,7.633,5.574,10.673A23.019,23.019,0,0,0,80.9,65.39c2.724,1.552,4.782,2.977,9.09,3.927a39.8,39.8,0,0,1,18.845,9.913c1.394,1.3,2.882,2.344,4.466.7C114.944,78.154,113.772,76.6,112.315,75.271ZM69.971,104.346c6.651,10.642,16.026,17.578,28.283,20.4,3.357.76,6.809,1.013,10.515,1.552,11.592-4.687,16.976-15.2,19.035-20.65a18.869,18.869,0,0,1-1.14,2.439,25.456,25.456,0,0,1-.348-2.6c-.823-4.244-1.52-8.488-2.66-12.637-.222-.823-2.09-1.2-3.167-1.805a20.4,20.4,0,0,0-1.615,3.357c-.158.538.348,1.3.538,1.964a38.2,38.2,0,0,1,1.14,17.229,16.748,16.748,0,0,1-.665,2.09l-1.9-1.9L104.4,100.2c-1.3-1.3-2.787-1.615-4.086-.253-1.2,1.267-.918,2.692.317,3.9l2.755,2.755,12.985,12.985c-1.52.285-2.47.57-3.452.665-16.564,1.489-29.328-4.846-38.354-18.781-1.077-1.647-2.217-3.2-4.339-1.932C68.07,100.894,68.957,102.731,69.971,104.346ZM13.247,30.52c.127,1.013.19,1.33.222,1.679,1.2,21.6,14.379,37.562,35.282,42.725a20.976,20.976,0,0,1,13.08,9.153c.982,1.52,2.249,2.66,4.054,1.52,1.932-1.235,1.425-2.882.348-4.5A26.883,26.883,0,0,0,49.289,69.6,39.5,39.5,0,0,1,19.233,37.076,33.371,33.371,0,0,1,19.9,23.108c2.534,2.534,4.719,4.751,6.9,6.9a72.482,72.482,0,0,0,6.144,5.954c.792.6,2.439.1,3.674.127a13.1,13.1,0,0,0-.127-3.706c-.253-.792-1.267-1.394-1.932-2.059L23.6,19.371c1.584-.317,2.565-.57,3.579-.7A37.861,37.861,0,0,1,43.366,20.1c1.584.475,3.04.253,3.642-1.489.6-1.805-.285-3.009-2.059-3.547a33.925,33.925,0,0,0-4.276-1.109c-3.009-.475-6.081-.823-9.628-1.267.412-.158.728-.317,1.045-.443-16.406,4.656-20.713,22.9-20.84,23.469A37.843,37.843,0,0,1,13.247,30.52Z" transform="translate(-2.023 -2)" fill="rgba(243,220,141,0.2)"/>
    </g>
  </g>
</svg>
