<svg xmlns="http://www.w3.org/2000/svg" xmlns:xlink="http://www.w3.org/1999/xlink" width="20" height="20" viewBox="0 0 20 20">
  <defs>
    <clipPath id="clip-path">
      <rect id="Rectangle_92" data-name="Rectangle 92" width="20" height="20" transform="translate(558 672)" fill="#750000"/>
    </clipPath>
  </defs>
  <g id="Mask_Group_35" data-name="Mask Group 35" transform="translate(-558 -672)" clip-path="url(#clip-path)">
    <g id="peanut-stroke" transform="translate(555.989 669.992)">
      <path id="Path_3" data-name="Path 3" d="M21.735,10.18A6.265,6.265,0,0,0,20.1,3.856a6.238,6.238,0,0,0-6.221-1.586A6.072,6.072,0,0,0,9.388,6.934,3.006,3.006,0,0,1,6.92,9.388a6.4,6.4,0,1,0,7.708,7.727,3.035,3.035,0,0,1,2.486-2.486A6.073,6.073,0,0,0,21.735,10.18Zm-5.048,3.439a3.751,3.751,0,0,0-3.082,3.1,5.309,5.309,0,0,1-7.023,3.861c-.1-.038-.2-.094-.324-.15.549-.08,1.06-.113,1.558-.23a6.506,6.506,0,0,0,4.189-3.021c.15-.239.281-.511-.033-.7s-.483.042-.643.286A5.73,5.73,0,0,1,5.648,19.54c-.145-.014-.291-.056-.511-.1l1.923-1.923.408-.408a.377.377,0,0,0,.047-.577c-.2-.206-.413-.155-.605.038L4.9,18.583l-.281.281a2.481,2.481,0,0,1-.1-.31,5.638,5.638,0,0,1,.169-2.547c.028-.1.108-.211.08-.291a3.454,3.454,0,0,0-.239-.5c-.164.089-.436.145-.469.267-.164.615-.272,1.248-.389,1.872-.023.122-.019.253-.052.385a4.547,4.547,0,0,1-.479-2.2,5.271,5.271,0,0,1,4.2-5.118,3.738,3.738,0,0,0,3.068-3.064,5.3,5.3,0,0,1,6.962-3.917c.117.038.23.094.408.169-.525.07-.976.117-1.426.188a5.025,5.025,0,0,0-.633.164.383.383,0,0,0-.3.525c.084.258.3.291.54.22a5.6,5.6,0,0,1,2.4-.211c.145.019.291.056.53.1L17.255,6.216c-.1.1-.249.183-.286.3a2.131,2.131,0,0,0-.019.549c.188,0,.427.07.544-.019a10.079,10.079,0,0,0,.91-.882c.324-.324.647-.647,1.027-1.023a4.943,4.943,0,0,1,.1,2.069,5.856,5.856,0,0,1-4.452,4.818,3.976,3.976,0,0,0-2.51,1.7c-.16.239-.235.483.052.666.267.174.455,0,.6-.22a3.1,3.1,0,0,1,1.938-1.356A6.621,6.621,0,0,0,20.384,6.5c0-.052.014-.1.033-.249A4.919,4.919,0,0,1,20.9,8.59,5.29,5.29,0,0,1,16.687,13.619Z" fill="#750000"/>
      <path id="Path_4" data-name="Path 4" d="M13.544,6.122a.429.429,0,0,0-.023-.525c-.188-.15-.69.192-.751.235a4.3,4.3,0,0,0-1.224,1.942,6.426,6.426,0,0,0-.3.952,3.124,3.124,0,0,1-2.533,2.529,6.471,6.471,0,0,0-2.979,1.6c-.216.2-.389.427-.136.69.235.249.46.089.661-.1A5.9,5.9,0,0,1,9.05,11.982,4.145,4.145,0,0,0,10.4,11.4a4.053,4.053,0,0,0,.638-.418A3.338,3.338,0,0,0,11.86,9.4,8.621,8.621,0,0,1,13.544,6.122Z" fill="#750000"/>
    </g>
  </g>
</svg>
