<svg xmlns="http://www.w3.org/2000/svg" xmlns:xlink="http://www.w3.org/1999/xlink" width="20" height="20" viewBox="0 0 20 20">
  <defs>
    <clipPath id="clip-path">
      <rect id="Rectangle_92" data-name="Rectangle 92" width="20" height="20" transform="translate(458 672)" fill="#750000"/>
    </clipPath>
  </defs>
  <g id="Mask_Group_31" data-name="Mask Group 31" transform="translate(-458 -672)" clip-path="url(#clip-path)">
    <path id="peanut" d="M20.1,3.861a6.238,6.238,0,0,0-6.221-1.586A6.072,6.072,0,0,0,9.388,6.939,3.006,3.006,0,0,1,6.92,9.393a6.4,6.4,0,1,0,7.708,7.723,3.036,3.036,0,0,1,2.487-2.487,6.06,6.06,0,0,0,4.621-4.443A6.26,6.26,0,0,0,20.1,3.861Zm-14.432,9a6.414,6.414,0,0,1,2.979-1.609,3.124,3.124,0,0,0,2.534-2.529,6.427,6.427,0,0,1,.3-.952A4.261,4.261,0,0,1,12.71,5.832c.061-.042.563-.385.751-.235a.429.429,0,0,1,.023.525A8.837,8.837,0,0,0,11.79,9.4a3.338,3.338,0,0,1-.826,1.581,3.41,3.41,0,0,1-.638.418,4.1,4.1,0,0,1-1.347.582,5.9,5.9,0,0,0-2.792,1.468c-.206.192-.427.347-.662.1C5.283,13.292,5.456,13.062,5.672,12.865Zm6.273,4.307a6.506,6.506,0,0,1-4.19,3.021c-.5.113-1.009.15-1.558.23a5.266,5.266,0,0,1-2.82-3.059,2.8,2.8,0,0,0,.169.361A3.771,3.771,0,0,0,3.6,17.34c.122-.629.225-1.257.394-1.872.033-.122.31-.178.469-.267a3.022,3.022,0,0,1,.239.5c.023.08-.052.192-.08.291a5.659,5.659,0,0,0-.169,2.552,2.481,2.481,0,0,0,.1.31l.282-.282,2.013-2.013c.192-.192.413-.239.605-.038A.377.377,0,0,1,7.4,17.1L7,17.5,5.072,19.428c.225.042.366.084.511.1a5.723,5.723,0,0,0,5.682-2.782c.16-.244.328-.474.643-.286S12.1,16.932,11.945,17.172Zm8.4-10.936c-.019.15-.028.2-.033.249a6.622,6.622,0,0,1-5.227,6.329,3.107,3.107,0,0,0-1.938,1.356c-.145.225-.333.394-.6.225-.286-.183-.211-.427-.052-.666a3.982,3.982,0,0,1,2.51-1.7,5.851,5.851,0,0,0,4.452-4.818,4.944,4.944,0,0,0-.1-2.069c-.375.375-.7.7-1.023,1.023a10.738,10.738,0,0,1-.91.882c-.117.089-.361.014-.544.019a1.941,1.941,0,0,1,.019-.549c.038-.117.188-.206.286-.3l1.623-1.623c-.235-.047-.38-.084-.53-.1a5.609,5.609,0,0,0-2.4.211c-.235.07-.45.038-.54-.221a.383.383,0,0,1,.3-.525,5.026,5.026,0,0,1,.633-.164c.446-.07.9-.122,1.426-.188-.061-.023-.108-.047-.155-.066A4.9,4.9,0,0,1,20.643,7,5.606,5.606,0,0,0,20.348,6.235Z" transform="translate(455.988 669.99)" fill="#750000"/>
  </g>
</svg>
