<svg xmlns="http://www.w3.org/2000/svg" xmlns:xlink="http://www.w3.org/1999/xlink" width="350" height="33" viewBox="0 0 350 33">
  <defs>
    <clipPath id="clip-path">
      <rect id="Rectangle_62" data-name="Rectangle 62" width="350" height="33" fill="#750000"/>
    </clipPath>
  </defs>
  <g id="Mask_Group_17" data-name="Mask Group 17" clip-path="url(#clip-path)">
    <path id="hero-torn-bottom-yellow.1e3c7937" d="M0,14.656a7.951,7.951,0,0,1,.852-1.22c.321.652-.013-.03.768-.961l1.2-1.65c.351.073.574.75,1.917.927,4.289.564,1.366,1.377,3.909,1.891l1.335,4.081c.687-.267,1.335-.5,1.751-.671,2.345,2.692.311.07,3.618,2.277,1.167.778-.675-.049,1.018.7,1.876.08.1-.121,1-.254a1.506,1.506,0,0,1,1,.025,10.664,10.664,0,0,0,2.155.465,11.39,11.39,0,0,0,3.817-.444l.931-.278a8.3,8.3,0,0,1,1.572,2.464c2.172.056,2.993-1.019,4.659,1.2,1.516-1.529,1.242-1.286,3.9-1.529,2.557-.234,2.358-1.007,4.31.169.437.263.734,1.747,4.06-.125a22.675,22.675,0,0,1,3.1-1.834c3.2,1.127,3.59,2.617,6.3,2.1l2.16-.43c.137-.014.241-.02.383-.031.752-.057,2.288.174,2.785-.326.046-.047.154-.166.211-.222s.152-.155.216-.213c1.3-1.183,2.662-1.464,4.4-1.881,4.384-1.052,2.044-1.426,6.1-.2l1.283-1.683c.77,1.15.963,1.011,2.949,1.088.552-.8.665-1.294,1.551-1.6,2.844-.991-.512.314,2.889.171l1.642-2.131c.052-.015.1-.032.149-.049a1.73,1.73,0,0,1,.824.727l.026.265c1.161,1.071.7.433.875,2.272,2.794-.764.006-1.482,3.955-.518l1.035-2.172c1.686.625.424.251,2.08-.4,2.019,2.317,4.141,1.631,6.046-.268.76.705.118-.049.414.869.012.038.033.171.042.2l.046.385c2.426-.651.095-1.009,3.514-1.686l.878,1.876c1.535-1.676,1.643-.883,4.407-1.268.456-.063,2.166-.148,2.28-.166.954-.155.777-.028,1.662-1.245l3.072.239c.3-1.107,0,.279-.4-1.521,1.8-.293,1.669-.68,3.033-1.423,1.385.523.023-.011,1.2.609.937.493-.391.068,1,.525,1.523-2.814-.665-.553,2.2-2.453,1.483.261.642.1,1.757,1.086a9.736,9.736,0,0,1,3.075-1.017c.456-.745.136-.993.878-1.726.365.452.332.521.649.933l.434.51c.036-.068.147.182.233.255l3.336-.521.216-.557c1.732-.482,4.436.525,7.388.273,2.449,2.427,2.014,1.356,4,2.668a1.39,1.39,0,0,0,.293-.147c2.566-1.133,1.788-.2,3.186-.187l1.23-.181c1.868.212.43.782,1.836,1,2.087.327,7.061-2.553,11.791-1.575a3.708,3.708,0,0,1,1.887.637l1.254,1.057a28.455,28.455,0,0,1,2.866-.777c2.627-.306.38-.076,2.183.437,2.942.837,2.339-.042,3.83,2.475,2.853-.207,3.631.139,4.806-.76.616,2.585,5.246,4.4,8.073,4.973,4.561.929,3.759,1.335,4.663,2.05,1.69,1.338.886.26,2.373.975,1.191.573.884.9,1.424,1.388a2.516,2.516,0,0,0,.162-.247l.165-.251c.046-.068.122-.2.17-.268l.609-.852c.964,1.448.514-.022,3.269.506,1.516.291,1.591.992,2.488,1.789,2.405,2.138,4.17.027,5.962-1.171,1.22.7,1.038,1.2,2.642,1.107,3.813-.224-.309-.306,2.189-1.27,3.407,1.375,1.7.675,4.832-.55.843.35.4.3,1.038.71.677.444.212.382,1.287.72l1.19-2.236c1.149.554.856.583,1.844,1.61,1.625,1.691,2.154,1.171,6.573-.241,4.262-1.362,3.329-1.166,5.349-2.7,1.332-1.015,2.135-.716,3.8-.9.8-1.064.281-1.874,2.461-1.506,2.052.347.682.9,3.035.813,1.043-.038.41-.262,1.849-.018,1.082.183.9.29.916.293.071.017.19.067.258.077,1.311.2.8-.547,3.368-.42.079,3.1-.369.679-.7,1.27-.175.313-1.344-.6-.057.587,1.02.94,1.4.416,2.466.066l5.288-2.07c1.585.937-.079,0,1.318,1.508,4.745.063,5.143.986,9.8.25,2.9-.459,5.042,1.009,8.185-.895a.766.766,0,0,0,.191-.092c.5,3.53.1,1.637,2.561,4.4,1.173-.263.315-.307.878-1.083,2.206.454,2.267-.055,3.955.757a30.215,30.215,0,0,0,5.69-1.581c3.388-1.3-.065.89,4.85-.991,1.83,1.021.248.807,2.621.677a13.944,13.944,0,0,1,4.228.19c1.222.4,1.1,1.088,2.607,1.565s2.512.157,4.016.377l.144,2.207c3.06.875,6.2-.239,9.224,1.483a.584.584,0,0,0,.012-.175l.11-.609c.228-.81-.209-.073.317-.752a8.534,8.534,0,0,1,3.473.826c.633,2.426-.369,3.473,2.237,3.959,2.216-.213-.413-2.5,6.084-3.071l7.571.8c2.844.016,2.628-.761,5.758.151,7.979,2.327,1.366,2.017,8.538,2.327,2.154.093,1.921-.4,4.995,1.669,2.088,1.4,3.639.785,3.639,1.757V0H0Z" transform="translate(-3.395 -0.331)" fill="#750000"/>
  </g>
</svg>
