<svg xmlns="http://www.w3.org/2000/svg" xmlns:xlink="http://www.w3.org/1999/xlink" width="350" height="33" viewBox="0 0 350 33">
  <defs>
    <clipPath id="clip-path">
      <rect id="Rectangle_60" data-name="Rectangle 60" width="350" height="33" fill="#8a3737"/>
    </clipPath>
  </defs>
  <g id="Mask_Group_18" data-name="Mask Group 18" clip-path="url(#clip-path)">
    <path id="hero-torn-top-yellow.d114a465" d="M357.033,10.025a9.706,9.706,0,0,1-7.569-2.33c-3.314-2.867-1.569-.593-5.084-.981-3.185-.425-2.71-1.967-5.8-.57-3.561,1.612-3.584,3.365-6.948,1.215l-1.792,1.42-1.8,1.176-.868-2.08c-1.447-.056-1.987-1.528-3.611-2.168l-5.214-2.284c-1.707-.965-2.961-2.5-4.565-1.812a5.788,5.788,0,0,0-2.116,1.533L309.19,5.858c-3.4.216-6.153,2.838-8.147.356-5.583,3.466-1.249-.5-6.673,1.446-1.581-4.427-1.892-.179-8.9.214-1.7.1-.761-.777-2.67-1.25-1.681-.416-.649.561-2.3.829-.492.08-2.516.025-3.275.066-1.474.082-.75-.955-6.113-1.273-.037-1.774.19-1.238-1.035-.817L269.3,7.361c-2.188-2.219-4.991-1.451-6.968-1.079-3.138.592-1.019.172-3.368-.749-5.511-2.157-5.4,5.3-8.667.875-3.235,2.107-6.953,1.063-11.067,1.433-.119-.223-.288-.262-.358-.668l-1.292-2.286c-2.662,1.4-15.391,1.756-20.527,3.867-4.688-4.783.367.169-3.728-1.679-2.292-1.034-.616-1.84-4.1,1.206-1.2-.918-2.323-3.558-6.582-2-8.023,2.928-3.372,1.67-8.206-.679-8.378-4.07-11.553,3.2-11.7,3.329-4.254-3.4-4.6-5.958-8.1-5.639-1.38.125-3.293,1.5-4.712.634-1.349-.826-3.179-5.531-8.845-3.355q-.236.091-.463.2c-.588,1.338-.757,1.411-1.64,1.655A1.747,1.747,0,0,1,157.4,3.658a1.485,1.485,0,0,1-.989-.082c-.093.3.4.366-1.457.061a7.9,7.9,0,0,1-1.578-.548,2.577,2.577,0,0,1-.54.371c-1.293.7-1.67.773-2.187.614-.707.642-.735.554-1.925.9-2.97.863-6.029-.333-8.464-1.307l-.056.021c-3.209,1.15-7.565.118-10.219,3.261-4.5,5.324-2.71,1.868-8.226.563-1.511.265-2.845.553-3.853.158l-.176-.634a6.384,6.384,0,0,0-2.781.549c-1.755.9-1.835,2.433-3.149,3.706-4.737-2.763-3.811-.681-8.213-1.2-3.737-.442-.517.352-3.668.959C94.579,12.082,97.4,8,92.893,9.671c-1.24.458-2.836.675-3.555,1.21-.925.687-.876,1.167-1.5,1.6-2.208,1.539-.159.31-1.54.057-3.153-.578.047-.774-2.663,1.838a8.5,8.5,0,0,0-6.45-3.623c-3.821.163-3.726-1.634-6.73-2.511-3.713-1.083-6.6.223-10.79,1.233-2.508.606-1.016,1.032-2.928-.3C52.1,5.936,52.792,13.153,41.9,6.986L41.6,9.2c-.481,2.217-2.1.148-4.361.082-2.638-.076-6.114,1-9.87-2.249-3.314-2.867-1.569-.592-5.083-.981-3.185-.424-2.711-1.967-5.8-.569C12.923,7.1,12.9,8.851,9.537,6.7L7.744,8.121,5.94,9.3,5.073,7.217C3.625,7.161,3.085,5.688,1.461,5.049L0,4.409v28.7H357.033Z" transform="translate(-3.314 0.174)" fill="#8a3737" fill-rule="evenodd"/>
  </g>
</svg>
